<?xml version="1.0" encoding="iso-8859-1"?>
<!-- Generator: Adobe Illustrator 19.0.0, SVG Export Plug-In . SVG Version: 6.00 Build 0)  -->
<svg version="1.1" id="Capa_1" xmlns="http://www.w3.org/2000/svg" xmlns:xlink="http://www.w3.org/1999/xlink" x="0px" y="0px"
	 viewBox="0 0 512 512" style="enable-background:new 0 0 512 512;" xml:space="preserve">
<path style="fill:#77DD00;" d="M403.721,272.047c0,39.891-15.598,77.684-44.09,105.878c-28.195,28.494-65.987,44.092-105.88,44.092
	s-77.686-15.598-105.88-44.092c-28.493-28.194-44.09-65.987-44.09-105.878c0-39.893,15.598-77.686,44.09-105.88
	c28.194-28.494,65.987-44.09,105.88-44.09c25.196,0,49.789,6.298,71.987,18.596l-58.79,71.386h231.255L440.613,0l-57.588,70.185
	C344.333,45.291,299.94,32.094,253.75,32.094c-64.187,0-124.477,24.894-169.766,70.185c-45.292,45.291-70.187,105.58-70.187,169.768
	s24.895,124.475,70.187,169.766C129.274,487.105,189.562,512,253.75,512s124.476-24.895,169.766-70.187
	c45.291-45.291,70.187-105.578,70.187-169.766V257.05h-89.982V272.047z"/>
<g>
	<path style="fill:#66BB00;" d="M403.721,257.05h89.982v14.997c0,64.187-24.896,124.475-70.187,169.766
		C378.226,487.105,317.938,512,253.75,512v-89.982c39.893,0,77.686-15.598,105.88-44.092c28.493-28.194,44.09-65.987,44.09-105.878
		V257.05z"/>
	<path style="fill:#66BB00;" d="M325.736,140.673c-22.198-12.299-46.791-18.596-71.987-18.596V32.094
		c46.19,0,90.583,13.197,129.275,38.092L440.613,0l57.59,212.059H266.948L325.736,140.673z"/>
</g>
<g>
</g>
<g>
</g>
<g>
</g>
<g>
</g>
<g>
</g>
<g>
</g>
<g>
</g>
<g>
</g>
<g>
</g>
<g>
</g>
<g>
</g>
<g>
</g>
<g>
</g>
<g>
</g>
<g>
</g>
</svg>
