<?xml version="1.0" encoding="iso-8859-1"?>
<!-- Generator: Adobe Illustrator 19.0.0, SVG Export Plug-In . SVG Version: 6.00 Build 0)  -->
<svg version="1.1" id="Capa_1" xmlns="http://www.w3.org/2000/svg" xmlns:xlink="http://www.w3.org/1999/xlink" x="0px" y="0px"
	 viewBox="0 0 512 512" style="enable-background:new 0 0 512 512;" xml:space="preserve">
<path style="fill:#5A5A5A;" d="M303.772,367.413l131.383,131.382c17.607,17.607,46.034,17.606,63.64,0
	c17.607-17.607,17.607-46.032,0-63.64L367.412,303.773L303.772,367.413z"/>
<path style="fill:#444444;" d="M303.772,367.413l31.82-31.82l163.203,163.202c-17.606,17.606-46.032,17.607-63.64,0L303.772,367.413
	z"/>
<path style="fill:#00ABE9;" d="M210.01,0C152.309-0.001,99.49,23.546,61.518,61.519C23.546,99.49-0.001,152.309,0,210.01
	c-0.001,115.825,94.185,210.011,210.01,210.01c57.701,0.001,110.521-23.545,148.492-61.516
	c37.972-37.972,61.519-90.793,61.518-148.494C420.021,94.185,325.835-0.001,210.01,0z"/>
<path style="fill:#0095FF;" d="M61.518,61.519l296.985,296.985c-37.971,37.971-90.792,61.518-148.492,61.516
	C94.185,420.021-0.001,325.835,0,210.01C-0.001,152.309,23.546,99.49,61.518,61.519z"/>
<path style="fill:#E7E7E7;" d="M210.222,60.032c-41.366-0.211-78.914,16.97-106.067,44.124
	c-27.152,27.152-44.123,64.489-43.91,105.854c-0.212,82.52,67.245,149.977,149.978,149.977c41.152,0,78.701-16.758,105.854-43.91
	c27.154-27.154,44.123-64.914,44.124-106.067C360.2,127.278,292.742,59.82,210.222,60.032z"/>
<path style="fill:#D3D3D8;" d="M104.155,104.156l211.921,211.921c-27.152,27.152-64.701,43.91-105.854,43.91
	c-82.732,0-150.19-67.458-149.978-149.977C60.032,168.645,77.003,131.308,104.155,104.156z"/>
<g>
</g>
<g>
</g>
<g>
</g>
<g>
</g>
<g>
</g>
<g>
</g>
<g>
</g>
<g>
</g>
<g>
</g>
<g>
</g>
<g>
</g>
<g>
</g>
<g>
</g>
<g>
</g>
<g>
</g>
</svg>
