<?xml version="1.0" encoding="iso-8859-1"?>
<!-- Generator: Adobe Illustrator 19.0.0, SVG Export Plug-In . SVG Version: 6.00 Build 0)  -->
<svg version="1.1" id="Capa_1" xmlns="http://www.w3.org/2000/svg" xmlns:xlink="http://www.w3.org/1999/xlink" x="0px" y="0px"
	 viewBox="0 0 512 512" style="enable-background:new 0 0 512 512;" xml:space="preserve">
<path style="fill:#FF3636;" d="M256,0C115.3,0,0,115.3,0,256s115.3,256,256,256s256-115.3,256-256S396.7,0,256,0z"/>
<path style="fill:#F40000;" d="M512,256c0,140.7-115.3,256-256,256V0C396.7,0,512,115.3,512,256z"/>
<path style="fill:#E7E7E7;" d="M226,76v180h60V76H226z M383.2,128.8l-42.299,42.299c46.8,46.8,46.8,122.999,0,169.799
	c-21.601,21.601-52.5,33.9-84.901,33.9s-63.3-12.299-84.901-33.9c-46.8-46.8-46.8-122.999,0-169.799L128.8,128.8
	c-70.201,70.199-70.201,184.199,0,254.399c33.9,33.9,79.2,52.8,127.2,52.8s93.3-18.9,127.2-52.8
	C453.401,312.999,453.401,198.999,383.2,128.8z"/>
<g>
	<rect x="256" y="76" style="fill:#D3D3D8;" width="30" height="180"/>
	<path style="fill:#D3D3D8;" d="M383.2,383.2C349.3,417.1,304,436,256,436v-61.201c32.401,0,63.3-12.299,84.901-33.9
		c46.8-46.8,46.8-122.999,0-169.799l42.299-42.3C453.401,198.999,453.401,312.999,383.2,383.2z"/>
</g>
<g>
</g>
<g>
</g>
<g>
</g>
<g>
</g>
<g>
</g>
<g>
</g>
<g>
</g>
<g>
</g>
<g>
</g>
<g>
</g>
<g>
</g>
<g>
</g>
<g>
</g>
<g>
</g>
<g>
</g>
</svg>
