<?xml version="1.0" encoding="iso-8859-1"?>
<!-- Generator: Adobe Illustrator 19.0.0, SVG Export Plug-In . SVG Version: 6.00 Build 0)  -->
<svg version="1.1" id="Capa_1" xmlns="http://www.w3.org/2000/svg" xmlns:xlink="http://www.w3.org/1999/xlink" x="0px" y="0px"
	 viewBox="0 0 512 512" style="enable-background:new 0 0 512 512;" xml:space="preserve">
<path style="fill:#5A5A5A;" d="M211,0v95.9h90V0H211z"/>
<rect x="256" style="fill:#444444;" width="45" height="95.9"/>
<g>
	<path style="fill:#FDBF00;" d="M181,422v15c0,5.14,0.52,10.15,1.5,15c6.96,34.22,37.24,60,73.5,60c10,0,19.55-1.96,28.27-5.53
		c22.92-9.33,40.19-29.69,45.23-54.47c0.98-4.85,1.5-9.86,1.5-15v-15H181z"/>
	<path style="fill:#FDBF00;" d="M412.6,332H412l-25.2,30H121.3L100,332h-0.6c14.1-34.5,21.6-70.8,21.6-108.3v-21.6
		c0-59.84,36.57-112.57,90-132.09c3.62-1.33,7.32-2.5,11.1-3.51c6.6-1.8,13.8-3.3,20.7-3.9c4.5-0.3,9-0.6,13.2-0.6
		c11.7,0,22.8,1.5,33.9,4.5c3.78,0.95,7.48,2.06,11.1,3.32c53.43,18.54,90,69.31,90,127.18v26.7C391,261.2,398.5,297.5,412.6,332z"
		/>
</g>
<g>
	<path style="fill:#FF9F00;" d="M487,452H329.5c-5.04,24.78-22.31,45.14-45.23,54.47L256,452V62c11.7,0,22.8,1.5,33.9,4.5
		c3.78,0.95,7.48,2.06,11.1,3.32c53.43,18.54,90,69.31,90,127.18v26.7c0,37.5,7.5,73.8,21.6,108.3H412l4.2,9
		c6.3,14.4,14.7,29.4,24.9,44.4L487,452z"/>
	<path style="fill:#FF9F00;" d="M331,422v15c0,5.14-0.52,10.15-1.5,15c-5.04,24.78-22.31,45.14-45.23,54.47
		C275.55,510.04,266,512,256,512v-90H331z"/>
</g>
<path style="fill:#FFD400;" d="M441.1,385.4c-10.2-15-18.6-30-24.9-44.4l-4.2-9H100l-4.2,9c-6.3,14.4-14.7,29.4-24.9,44.4L25,452
	h462L441.1,385.4z"/>
<path style="fill:#FDBF00;" d="M487,452H256V332h156l4.2,9c6.3,14.4,14.7,29.4,24.9,44.4L487,452z"/>
<g>
</g>
<g>
</g>
<g>
</g>
<g>
</g>
<g>
</g>
<g>
</g>
<g>
</g>
<g>
</g>
<g>
</g>
<g>
</g>
<g>
</g>
<g>
</g>
<g>
</g>
<g>
</g>
<g>
</g>
</svg>
