<?xml version="1.0" encoding="iso-8859-1"?>
<!-- Generator: Adobe Illustrator 19.0.0, SVG Export Plug-In . SVG Version: 6.00 Build 0)  -->
<svg version="1.1" id="Capa_1" xmlns="http://www.w3.org/2000/svg" xmlns:xlink="http://www.w3.org/1999/xlink" x="0px" y="0px"
	 viewBox="0 0 512 512" style="enable-background:new 0 0 512 512;" xml:space="preserve">
<path style="fill:#FFD400;" d="M240,0C107.701,0,0,107.699,0,240c0,132.299,107.701,240,240,240s240-107.701,240-240
	C480,107.699,372.299,0,240,0z M240,60c32.999,0,60,26.999,60,60c0,32.999-27.001,60-60,60s-60-27.001-60-60
	C180,86.999,207.001,60,240,60z M270,240c0,16.5-13.5,30-30,30s-30-13.5-30-30s13.5-30,30-30S270,223.5,270,240z M120,300
	c-32.999,0-60-27.001-60-60c0-33.001,27.001-60,60-60s60,26.999,60,60C180,272.999,152.999,300,120,300z M240,420
	c-32.999,0-60-27.001-60-60c0-33.001,27.001-60,60-60s60,26.999,60,60C300,392.999,272.999,420,240,420z M360,300
	c-32.999,0-60-27.001-60-60c0-33.001,27.001-60,60-60s60,26.999,60,60C420,272.999,392.999,300,360,300z"/>
<path style="fill:#444444;" d="M512,512c-33.091,0-62-26.909-62-60V225h30v227c0,16.538,15.462,30,32,30V512z"/>
<path style="fill:#FF9F00;" d="M240,0v60c32.999,0,60,26.999,60,60c0,32.999-27.001,60-60,60v30c16.5,0,30,13.5,30,30
	s-13.5,30-30,30v30c32.999,0,60,26.999,60,60c0,32.999-27.001,60-60,60v60c132.299,0,240-107.701,240-240
	C480,107.699,372.299,0,240,0z M360,300c-32.999,0-60-27.001-60-60c0-33.001,27.001-60,60-60s60,26.999,60,60
	C420,272.999,392.999,300,360,300z"/>
<g>
</g>
<g>
</g>
<g>
</g>
<g>
</g>
<g>
</g>
<g>
</g>
<g>
</g>
<g>
</g>
<g>
</g>
<g>
</g>
<g>
</g>
<g>
</g>
<g>
</g>
<g>
</g>
<g>
</g>
</svg>
