<?xml version="1.0" encoding="iso-8859-1"?>
<!-- Generator: Adobe Illustrator 19.0.0, SVG Export Plug-In . SVG Version: 6.00 Build 0)  -->
<svg version="1.1" id="Capa_1" xmlns="http://www.w3.org/2000/svg" xmlns:xlink="http://www.w3.org/1999/xlink" x="0px" y="0px"
	 viewBox="0 0 512 512" style="enable-background:new 0 0 512 512;" xml:space="preserve">
<path style="fill:#F40000;" d="M30,180.947v331h452v-331H30z"/>
<path style="fill:#FDBF00;" d="M409.6,48.646c-4.799-23.399-21.899-41.4-45-46.8c-23.399-5.7-46.8,2.401-61.5,21l-47.4,58.802
	l-47.1-58.801c-14.7-18.6-38.399-26.7-61.5-21c-23.101,5.4-40.199,23.401-45,46.8c-3.6,17.701,1.199,36,12.599,50.101
	c11.4,14.099,28.5,22.2,46.8,22.2H350.2c18.3,0,35.099-8.101,46.8-22.2C408.401,84.647,413.2,66.347,409.6,48.646z"/>
<path style="fill:#FF9F00;" d="M350.2,120.947h-94.5v-39.3l47.4-58.8c14.7-18.6,38.101-26.7,61.5-21
	c23.101,5.4,40.201,23.401,45,46.8c3.6,17.701-1.199,36-12.599,50.101C385.3,112.847,368.5,120.947,350.2,120.947z"/>
<rect x="255.7" y="180.949" style="fill:#E10000;" width="226.3" height="331"/>
<path style="fill:#FF3636;" d="M0,90.947v120h512v-120H0z"/>
<rect x="255.7" y="90.949" style="fill:#F40000;" width="256.3" height="120"/>
<path style="fill:#FFD400;" d="M181,90.947v421h150v-421H181z"/>
<rect x="255.7" y="90.949" style="fill:#FDBF00;" width="75.3" height="421"/>
<g>
</g>
<g>
</g>
<g>
</g>
<g>
</g>
<g>
</g>
<g>
</g>
<g>
</g>
<g>
</g>
<g>
</g>
<g>
</g>
<g>
</g>
<g>
</g>
<g>
</g>
<g>
</g>
<g>
</g>
</svg>
