<?xml version="1.0" encoding="iso-8859-1"?>
<!-- Generator: Adobe Illustrator 19.0.0, SVG Export Plug-In . SVG Version: 6.00 Build 0)  -->
<svg version="1.1" id="Capa_1" xmlns="http://www.w3.org/2000/svg" xmlns:xlink="http://www.w3.org/1999/xlink" x="0px" y="0px"
	 viewBox="0 0 512 512" style="enable-background:new 0 0 512 512;" xml:space="preserve">
<path style="fill:#FF3636;" d="M512,189.5V302H270.399c0,0-3.6,0-14.399,0H0V189.5L256,0L512,189.5z"/>
<polygon style="fill:#BABAC0;" points="362,0 362,107 452,182 452,0 "/>
<path style="fill:#F40000;" d="M512,189.5V302H270.399c0,0-3.6,0-14.399,0V0L512,189.5z"/>
<path style="fill:#E7E7E7;" d="M256,73.4L60,219.5V512h392V219.5L256,73.4z"/>
<polygon style="fill:#D3D3D8;" points="452,219.5 452,512 256,512 256,73.4 "/>
<path style="fill:#5A5A5A;" d="M256,272c-41.4,0-75,33.6-75,75v165h150V347C331,305.6,297.4,272,256,272z"/>
<path style="fill:#444444;" d="M331,347v165h-75V272C297.4,272,331,305.6,331,347z"/>
<g>
</g>
<g>
</g>
<g>
</g>
<g>
</g>
<g>
</g>
<g>
</g>
<g>
</g>
<g>
</g>
<g>
</g>
<g>
</g>
<g>
</g>
<g>
</g>
<g>
</g>
<g>
</g>
<g>
</g>
</svg>
