<?xml version="1.0" encoding="iso-8859-1"?>
<!-- Generator: Adobe Illustrator 19.0.0, SVG Export Plug-In . SVG Version: 6.00 Build 0)  -->
<svg version="1.1" id="Capa_1" xmlns="http://www.w3.org/2000/svg" xmlns:xlink="http://www.w3.org/1999/xlink" x="0px" y="0px"
	 viewBox="0 0 512 512" style="enable-background:new 0 0 512 512;" xml:space="preserve">
<path style="fill:#5A5A5A;" d="M512,268.092v45l-11.1,15H452v-60c0-107.401-88.599-195-196-195s-196,87.599-196,195v60H17.701
	L0,313.092v-45c0-140.7,115.3-255,256-255S512,127.392,512,268.092z"/>
<path style="fill:#444444;" d="M512,268.092v45l-11.1,15H452v-60c0-107.401-88.599-195-196-195v-60
	C396.7,13.092,512,127.392,512,268.092z"/>
<path style="fill:#FDBF00;" d="M90,433.092H0v-120h90V433.092z"/>
<path style="fill:#FF9F00;" d="M512,433.092h-90v-120h90V433.092z"/>
<path style="fill:#FDBF00;" d="M332,498.908V247.277l120,40.005v171.621L332,498.908z"/>
<path style="fill:#FFD400;" d="M180,498.908L60,458.903V287.282l120-40.005V498.908z"/>
<g>
</g>
<g>
</g>
<g>
</g>
<g>
</g>
<g>
</g>
<g>
</g>
<g>
</g>
<g>
</g>
<g>
</g>
<g>
</g>
<g>
</g>
<g>
</g>
<g>
</g>
<g>
</g>
<g>
</g>
</svg>
