<?xml version="1.0" encoding="iso-8859-1"?>
<!-- Generator: Adobe Illustrator 19.0.0, SVG Export Plug-In . SVG Version: 6.00 Build 0)  -->
<svg version="1.1" id="Capa_1" xmlns="http://www.w3.org/2000/svg" xmlns:xlink="http://www.w3.org/1999/xlink" x="0px" y="0px"
	 viewBox="0 0 512 512" style="enable-background:new 0 0 512 512;" xml:space="preserve">
<path style="fill:#BABAC0;" d="M270.045,333.685L399.02,462.66L512,512l-45.945-107.889l-132.37-134.066L270.045,333.685z"/>
<polygon style="fill:#E7E7E7;" points="301.865,301.865 333.685,270.045 466.055,404.111 512,512 "/>
<path style="fill:#E10000;" d="M85.277,191.344l121.128,121.128l106.066-106.066L191.344,85.277L85.277,191.344z"/>
<g>
	
		<rect x="139.743" y="134.861" transform="matrix(0.7071 0.7071 -0.7071 0.7071 187.8935 -108.8932)" style="fill:#F40000;" width="171.298" height="74.999"/>
	<path style="fill:#F40000;" d="M280.652,195.799l-84.853,84.853c-40.941,40.941-40.941,107.551,0,148.492l10.607,10.607
		l233.133-233.133l-10.394-10.819C390.112,155.918,319.472,156.129,280.652,195.799z"/>
	<path style="fill:#F40000;" d="M0,191.344l10.607,10.607c14.214,14.214,33.305,21.874,53.247,21.874
		c17.818,0,34.789-5.964,48.365-17.42l47.305-46.88l46.882-46.882v-0.425c11.455-13.575,17.418-30.546,17.42-48.365
		c-0.001-20.365-7.661-39.032-21.875-53.245L191.344,0L0,191.344z"/>
</g>
<g>
	<path style="fill:#FF3636;" d="M206.405,112.642l-46.882,46.882L95.672,95.672L191.344,0l10.607,10.607
		c14.214,14.214,21.874,32.88,21.875,53.245c-0.001,17.82-5.965,34.79-17.42,48.365L206.405,112.642L206.405,112.642z"/>
	<path style="fill:#FF3636;" d="M429.144,195.799l10.394,10.819l-116.46,116.46l-84.853-84.853l42.426-42.426
		C319.472,156.129,390.112,155.918,429.144,195.799z"/>
</g>
<g>
</g>
<g>
</g>
<g>
</g>
<g>
</g>
<g>
</g>
<g>
</g>
<g>
</g>
<g>
</g>
<g>
</g>
<g>
</g>
<g>
</g>
<g>
</g>
<g>
</g>
<g>
</g>
<g>
</g>
</svg>
