<?xml version="1.0" encoding="iso-8859-1"?>
<!-- Generator: Adobe Illustrator 19.0.0, SVG Export Plug-In . SVG Version: 6.00 Build 0)  -->
<svg version="1.1" id="Capa_1" xmlns="http://www.w3.org/2000/svg" xmlns:xlink="http://www.w3.org/1999/xlink" x="0px" y="0px"
	 viewBox="0 0 512 512" style="enable-background:new 0 0 512 512;" xml:space="preserve">
<path style="fill:#77DD00;" d="M407,31H105v30c41.4,0,75,33.6,75,75s-33.6,75-75,75v30h302c27.9,0,54.3-10.8,74.099-30.901
	C501.2,190.3,512,163.9,512,136C512,78.1,464.9,31,407,31z"/>
<path style="fill:#FF3636;" d="M407,301v-30H105c-27.9,0-54.3,10.8-74.099,30.899C10.8,321.7,0,348.1,0,376c0,57.9,47.1,105,105,105
	h302v-30c-41.4,0-75-33.6-75-75S365.6,301,407,301z"/>
<path style="fill:#F40000;" d="M407,451v30H105C47.1,481,0,433.9,0,376h332C332,417.4,365.6,451,407,451z"/>
<path style="fill:#66BB00;" d="M512,136c0,27.9-10.8,54.3-30.901,74.099C461.3,230.2,434.9,241,407,241H105v-30
	c41.4,0,75-33.6,75-75H512z"/>
<g>
	<path style="fill:#E7E7E7;" d="M105,31c-27.9,0-54.3,10.8-74.099,30.901C10.8,81.7,0,108.1,0,136c0,57.9,47.1,105,105,105
		s105-47.1,105-105S162.9,31,105,31z"/>
	<path style="fill:#E7E7E7;" d="M407,271c-57.9,0-105,47.1-105,105s47.1,105,105,105c27.9,0,54.3-10.8,74.099-30.901
		C501.2,430.3,512,403.9,512,376C512,318.1,464.9,271,407,271z"/>
</g>
<g>
	<path style="fill:#D3D3D8;" d="M512,376c0,27.9-10.8,54.3-30.901,74.099C461.3,470.2,434.9,481,407,481c-57.9,0-105-47.1-105-105
		H512z"/>
	<path style="fill:#D3D3D8;" d="M210,136c0,57.9-47.1,105-105,105S0,193.9,0,136H210z"/>
</g>
<g>
</g>
<g>
</g>
<g>
</g>
<g>
</g>
<g>
</g>
<g>
</g>
<g>
</g>
<g>
</g>
<g>
</g>
<g>
</g>
<g>
</g>
<g>
</g>
<g>
</g>
<g>
</g>
<g>
</g>
</svg>
