<?xml version="1.0" encoding="iso-8859-1"?>
<!-- Generator: Adobe Illustrator 19.0.0, SVG Export Plug-In . SVG Version: 6.00 Build 0)  -->
<svg version="1.1" id="Capa_1" xmlns="http://www.w3.org/2000/svg" xmlns:xlink="http://www.w3.org/1999/xlink" x="0px" y="0px"
	 viewBox="0 0 512 512" style="enable-background:new 0 0 512 512;" xml:space="preserve">
<polygon style="fill:#FDBF00;" points="196.874,202.563 122.813,119.125 0,77.875 0,434.123 102.188,400.375 165.938,338.5 
	203.571,256 "/>
<polygon style="fill:#FF9F00;" points="404.188,120.063 324.5,199.75 308.429,256 319.813,316.938 414.031,411.156 512,434.125 
	512,77.875 "/>
<polygon style="fill:#FFD400;" points="512,434.2 512,436 0,436 0,434.2 203.699,256 308.301,256 "/>
<polygon style="fill:#FDBF00;" points="512,434.2 512,436 256,436 256,256 308.301,256 "/>
<polygon style="fill:#5A5A5A;" points="512,76 512,77.8 256,301 0,77.8 0,76 "/>
<polygon style="fill:#444444;" points="512,76 512,77.8 256,301 256,76 "/>
<g>
</g>
<g>
</g>
<g>
</g>
<g>
</g>
<g>
</g>
<g>
</g>
<g>
</g>
<g>
</g>
<g>
</g>
<g>
</g>
<g>
</g>
<g>
</g>
<g>
</g>
<g>
</g>
<g>
</g>
</svg>
