<?xml version="1.0" encoding="iso-8859-1"?>
<!-- Generator: Adobe Illustrator 19.0.0, SVG Export Plug-In . SVG Version: 6.00 Build 0)  -->
<svg version="1.1" id="Capa_1" xmlns="http://www.w3.org/2000/svg" xmlns:xlink="http://www.w3.org/1999/xlink" x="0px" y="0px"
	 viewBox="0 0 512 512" style="enable-background:new 0 0 512 512;" xml:space="preserve">
<path style="fill:#E7E7E7;" d="M0,0v512h512V0H0z"/>
<rect x="256" style="fill:#D3D3D8;" width="256" height="512"/>
<polygon style="fill:#00ABE9;" points="451,61 451,400.901 416.499,405.099 346,310.901 278.5,400.901 256,370.901 167.199,252.4 
	89.2,377.199 61,365.799 61,61 "/>
<polygon style="fill:#0095FF;" points="451,61 451,400.901 416.499,405.099 346,310.901 278.5,400.901 256,370.901 256,61 "/>
<path style="fill:#5A5A5A;" d="M256,321.099l-91.199-121.5L61,365.799V451h292.5L256,321.099z"/>
<path style="fill:#D3D3D8;" d="M331,241c-33.091,0-60-26.909-60-60s26.909-60,60-60s60,26.909,60,60S364.091,241,331,241z"/>
<polygon style="fill:#292929;" points="346,260.995 259.75,376 299.85,429.467 353.5,451 451,451 451,401.005 "/>
<polygon style="fill:#444444;" points="353.5,451 256,451 256,321.099 "/>
<g>
</g>
<g>
</g>
<g>
</g>
<g>
</g>
<g>
</g>
<g>
</g>
<g>
</g>
<g>
</g>
<g>
</g>
<g>
</g>
<g>
</g>
<g>
</g>
<g>
</g>
<g>
</g>
<g>
</g>
</svg>
