<?xml version="1.0" encoding="iso-8859-1"?>
<!-- Generator: Adobe Illustrator 19.0.0, SVG Export Plug-In . SVG Version: 6.00 Build 0)  -->
<svg version="1.1" id="Capa_1" xmlns="http://www.w3.org/2000/svg" xmlns:xlink="http://www.w3.org/1999/xlink" x="0px" y="0px"
	 viewBox="0 0 512 512" style="enable-background:new 0 0 512 512;" xml:space="preserve">
<polygon style="fill:#5A5A5A;" points="512,98.699 512,512 392,512 392,302 120,302 120,512 0,512 0,0 120,0 120,180 392,180 392,0 
	422,0 "/>
<polygon style="fill:#444444;" points="512,98.699 512,512 392,512 392,302 256,302 256,180 392,180 392,0 422,0 "/>
<g>
	<path style="fill:#E7E7E7;" d="M90,272v240h332V272H90z"/>
	<path style="fill:#E7E7E7;" d="M90,0v210h332V0H90z"/>
</g>
<g>
	<rect x="256" style="fill:#D3D3D8;" width="166" height="210"/>
	<rect x="256" y="272" style="fill:#D3D3D8;" width="166" height="240"/>
</g>
<rect x="271" style="fill:#444444;" width="91" height="150"/>
<rect x="180" y="362" style="fill:#D3D3D8;" width="152" height="30"/>
<rect x="256" y="362" style="fill:#BABAC0;" width="76" height="30"/>
<g>
</g>
<g>
</g>
<g>
</g>
<g>
</g>
<g>
</g>
<g>
</g>
<g>
</g>
<g>
</g>
<g>
</g>
<g>
</g>
<g>
</g>
<g>
</g>
<g>
</g>
<g>
</g>
<g>
</g>
</svg>
