<?xml version="1.0" encoding="iso-8859-1"?>
<!-- Generator: Adobe Illustrator 19.0.0, SVG Export Plug-In . SVG Version: 6.00 Build 0)  -->
<svg version="1.1" id="Capa_1" xmlns="http://www.w3.org/2000/svg" xmlns:xlink="http://www.w3.org/1999/xlink" x="0px" y="0px"
	 viewBox="0 0 512 512" style="enable-background:new 0 0 512 512;" xml:space="preserve">
<polygon style="fill:#FF3636;" points="512,60 512,180 463.001,210 39.101,210 0,180 0,60 "/>
<polygon style="fill:#F40000;" points="512,60 512,180 463.001,210 256,210 256,60 "/>
<path style="fill:#E7E7E7;" d="M0,180v332h512V180H0z"/>
<g>
	<rect x="256" y="180" style="fill:#D3D3D8;" width="256" height="332"/>
	<path style="fill:#D3D3D8;" d="M151,330H61v-90h90V330z"/>
	<path style="fill:#D3D3D8;" d="M151,450H61v-90h90V450z"/>
	<path style="fill:#D3D3D8;" d="M211,240v90h90v-90H211z"/>
	<path style="fill:#D3D3D8;" d="M211,360v90h90v-90H211z"/>
</g>
<g>
	<path style="fill:#BABAC0;" d="M451,330h-90v-90h90V330z"/>
	<path style="fill:#BABAC0;" d="M451,450h-90v-90h90V450z"/>
	<rect x="256" y="240" style="fill:#BABAC0;" width="45" height="90"/>
	<rect x="256" y="360" style="fill:#BABAC0;" width="45" height="90"/>
</g>
<path style="fill:#E7E7E7;" d="M151,150H61V0h90V150z"/>
<path style="fill:#D3D3D8;" d="M451,150h-90V0h90V150z"/>
<g>
</g>
<g>
</g>
<g>
</g>
<g>
</g>
<g>
</g>
<g>
</g>
<g>
</g>
<g>
</g>
<g>
</g>
<g>
</g>
<g>
</g>
<g>
</g>
<g>
</g>
<g>
</g>
<g>
</g>
</svg>
