<?xml version="1.0" encoding="iso-8859-1"?>
<!-- Generator: Adobe Illustrator 19.0.0, SVG Export Plug-In . SVG Version: 6.00 Build 0)  -->
<svg version="1.1" id="Capa_1" xmlns="http://www.w3.org/2000/svg" xmlns:xlink="http://www.w3.org/1999/xlink" x="0px" y="0px"
	 viewBox="0 0 512 512" style="enable-background:new 0 0 512 512;" xml:space="preserve">
<polygon style="fill:#5A5A5A;" points="512,0 512,120 476.6,150 35.099,150 0,120 0,0 "/>
<polygon style="fill:#444444;" points="512,0 512,120 476.6,150 256,150 256,0 "/>
<path style="fill:#E7E7E7;" d="M0,120v392h512V120H0z"/>
<rect x="256" y="120" style="fill:#D3D3D8;" width="256" height="392"/>
<rect x="391" y="392" style="fill:#BABAC0;" width="30" height="30"/>
<g>
	<rect x="91" y="392" style="fill:#D3D3D8;" width="270" height="30"/>
	<path style="fill:#D3D3D8;" d="M91,212v120h330V212H91z"/>
</g>
<g>
	<rect x="256" y="392" style="fill:#BABAC0;" width="105" height="30"/>
	<rect x="256" y="212" style="fill:#BABAC0;" width="165" height="120"/>
</g>
<g>
	<rect x="61" y="60" style="fill:#E7E7E7;" width="30" height="30"/>
	<rect x="121" y="60" style="fill:#E7E7E7;" width="30" height="30"/>
	<rect x="181" y="60" style="fill:#E7E7E7;" width="30" height="30"/>
</g>
<g>
</g>
<g>
</g>
<g>
</g>
<g>
</g>
<g>
</g>
<g>
</g>
<g>
</g>
<g>
</g>
<g>
</g>
<g>
</g>
<g>
</g>
<g>
</g>
<g>
</g>
<g>
</g>
<g>
</g>
</svg>
