<?xml version="1.0" encoding="iso-8859-1"?>
<!-- Generator: Adobe Illustrator 19.0.0, SVG Export Plug-In . SVG Version: 6.00 Build 0)  -->
<svg version="1.1" id="Capa_1" xmlns="http://www.w3.org/2000/svg" xmlns:xlink="http://www.w3.org/1999/xlink" x="0px" y="0px"
	 viewBox="0 0 512 512" style="enable-background:new 0 0 512 512;" xml:space="preserve">
<polygon style="fill:#FFD400;" points="512,91 512,211 485.9,241 31.5,241 0,211 0,91 156.7,91 186.7,31 325.3,31 355.3,91 "/>
<polygon style="fill:#FF9F00;" points="512,91 512,211 485.9,241 256,241 256,31 325.3,31 355.3,91 "/>
<path style="fill:#5A5A5A;" d="M0,211v270h512V211H0z"/>
<rect x="256" y="211" style="fill:#444444;" width="256" height="270"/>
<path style="fill:#E7E7E7;" d="M256,151c-74.399,0-135,60.601-135,135s60.601,135,135,135s135-60.601,135-135S330.399,151,256,151z"
	/>
<path style="fill:#BABAC0;" d="M391,286c0,74.399-60.601,135-135,135V151C330.399,151,391,211.601,391,286z"/>
<path style="fill:#00ABE9;" d="M256,211c-41.4,0-75,33.6-75,75s33.6,75,75,75s75-33.6,75-75S297.4,211,256,211z"/>
<rect x="421" y="151" style="fill:#444444;" width="30" height="30"/>
<path style="fill:#0095FF;" d="M331,286c0,41.4-33.6,75-75,75V211C297.4,211,331,244.6,331,286z"/>
<g>
</g>
<g>
</g>
<g>
</g>
<g>
</g>
<g>
</g>
<g>
</g>
<g>
</g>
<g>
</g>
<g>
</g>
<g>
</g>
<g>
</g>
<g>
</g>
<g>
</g>
<g>
</g>
<g>
</g>
</svg>
