<svg id="Layer_1" enable-background="new 0 0 512 512" height="512" viewBox="0 0 512 512" width="512" xmlns="http://www.w3.org/2000/svg"><path d="m467.55 256 41.45-55.267c3.409-4.545 3.958-10.626 1.417-15.708s-7.735-8.292-13.417-8.292h-80.333c-4.721 0-9.167 2.223-12 6l-48.2 64.267c-4 5.333-4 12.667 0 18l48.2 64.267c2.833 3.777 7.279 6 12 6h80.333c5.682 0 10.875-3.21 13.417-8.292 2.541-5.082 1.992-11.163-1.417-15.708z"/><path d="m285.625 241h34.716c-7.363-55.538-55.023-98.533-112.541-98.533-62.603 0-113.533 50.931-113.533 113.533s50.93 113.533 113.533 113.533c57.518 0 105.178-42.995 112.541-98.533h-34.716c-7.033 36.557-39.246 64.267-77.825 64.267-43.708 0-79.267-35.559-79.267-79.267s35.559-79.267 79.267-79.267c38.579 0 70.792 27.71 77.825 64.267z"/><path d="m380.668 347.268-36.007-48.01c-18.394 58.068-72.787 100.275-136.861 100.275-79.145 0-143.533-64.389-143.533-143.533s64.388-143.533 143.533-143.533c64.074 0 118.467 42.207 136.861 100.275l36.006-48.008c2.61-3.479 5.698-6.522 9.133-9.071-35.397-64.067-103.626-107.463-182-107.463-114.765 0-207.8 93.035-207.8 207.8s93.035 207.8 207.8 207.8c78.374 0 146.603-43.395 181.999-107.462-3.434-2.549-6.522-5.591-9.131-9.07z"/><path d="m207.8 241h46.924c-6.361-19.852-24.988-34.267-46.924-34.267-27.166 0-49.267 22.101-49.267 49.267s22.101 49.267 49.267 49.267c21.937 0 40.563-14.415 46.924-34.267h-46.924c-8.284 0-15-6.716-15-15s6.716-15 15-15z"/></svg>