<svg id="_x31_" enable-background="new 0 0 24 24" height="512" viewBox="0 0 24 24" width="512" xmlns="http://www.w3.org/2000/svg"><g><path d="m17.5 24c-3.584 0-6.5-2.916-6.5-6.5s2.916-6.5 6.5-6.5 6.5 2.916 6.5 6.5-2.916 6.5-6.5 6.5zm0-12c-3.032 0-5.5 2.467-5.5 5.5s2.468 5.5 5.5 5.5 5.5-2.467 5.5-5.5-2.468-5.5-5.5-5.5z"/></g><g><path d="m17.5 20c-.276 0-.5-.224-.5-.5v-.263c0-.96.505-1.881 1.386-2.526.385-.282.614-.735.614-1.211 0-.827-.673-1.5-1.5-1.5s-1.5.673-1.5 1.5c0 .276-.224.5-.5.5s-.5-.224-.5-.5c0-1.378 1.121-2.5 2.5-2.5s2.5 1.122 2.5 2.5c0 .793-.382 1.547-1.022 2.017-.366.268-.978.847-.978 1.72v.263c0 .276-.224.5-.5.5z"/></g><g><circle cx="17.5" cy="21.5" r=".5"/></g><g><path d="m9.5 20h-9c-.276 0-.5-.224-.5-.5v-4c0-1.93 1.57-3.5 3.5-3.5h7c.276 0 .5.224.5.5s-.224.5-.5.5h-7c-1.379 0-2.5 1.122-2.5 2.5v3.5h8.5c.276 0 .5.224.5.5s-.224.5-.5.5z"/></g><g><path d="m8 10c-2.481 0-4.5-2.019-4.5-4.5s2.019-4.5 4.5-4.5 4.5 2.019 4.5 4.5-2.019 4.5-4.5 4.5zm0-8c-1.93 0-3.5 1.57-3.5 3.5s1.57 3.5 3.5 3.5 3.5-1.57 3.5-3.5-1.57-3.5-3.5-3.5z"/></g><g><path d="m11.397 5.584c-1.189 0-2.047-.808-2.489-1.352-1.943 1.494-4.24 1.357-4.938 1.274-.274-.033-.469-.282-.436-.556.034-.275.293-.467.557-.436.642.077 2.864.207 4.568-1.38.111-.103.264-.149.414-.128.15.022.283.112.359.244.039.067.977 1.648 2.413 1.276.265-.068.54.093.608.36.068.268-.093.54-.36.609-.242.062-.475.089-.696.089z"/></g></svg>