<?xml version="1.0" encoding="iso-8859-1"?>
<!-- Generator: Adobe Illustrator 19.0.0, SVG Export Plug-In . SVG Version: 6.00 Build 0)  -->
<svg version="1.1" id="Capa_1" xmlns="http://www.w3.org/2000/svg" xmlns:xlink="http://www.w3.org/1999/xlink" x="0px" y="0px"
	 viewBox="0 0 512 512" style="enable-background:new 0 0 512 512;" xml:space="preserve">
<g>
	<path style="fill:#00ABE9;" d="M256.499,391.155c-24.901,0-45,20.099-45,45c0,24.899,20.099,45,45,45s45-20.101,45-45
		C301.499,411.254,281.4,391.155,256.499,391.155z"/>
	<path style="fill:#00ABE9;" d="M512,117.555l-35.699,49.199c-58.5-46.5-135.501-73.499-211.701-75.298h-8.101
		c-79.2-0.601-159.9,26.699-220.501,75.298L0,117.555l12.299-9.001c68.699-50.099,157.199-78.3,244.2-77.699
		C338.999,31.455,430.401,58.154,512,117.555z"/>
	<path style="fill:#00ABE9;" d="M441.5,214.454l-35.7,49.501c-39.901-33.6-95.301-52.8-149.3-52.8h-1.2
		c-53.401,0.3-108.9,19.499-148.5,52.8l-36-49.501l11.999-8.699c50.101-36.601,114.9-54.901,173.701-54.901
		s122.9,18.3,173.001,54.901L441.5,214.454z"/>
	<path style="fill:#00ABE9;" d="M371,311.654l-36,49.501c-19.2-18.3-48.501-28.2-71.601-29.7c-2.399,0-4.499-0.3-6.899-0.3
		c-25.201,0-58.2,9.3-79.2,29.7l-36-49.2l12.001-9c28.799-21,67.8-32.401,103.2-31.8C291.599,271.754,333.801,284.355,371,311.654z"
		/>
</g>
<g>
	<path style="fill:#0095FF;" d="M301.499,436.155c0,24.899-20.099,45-45,45v-90C281.4,391.155,301.499,411.254,301.499,436.155z"/>
	<path style="fill:#0095FF;" d="M256.499,270.855c35.099,0.899,77.301,13.5,114.501,40.8l-36,49.501
		c-19.2-18.3-48.501-28.2-71.601-29.7c-2.399,0-4.499-0.3-6.899-0.3v-60.301H256.499z"/>
	<path style="fill:#0095FF;" d="M429.501,205.755l11.999,8.699l-35.7,49.501c-39.901-33.6-95.301-52.8-149.3-52.8v-60.3
		C315.3,150.855,379.399,169.154,429.501,205.755z"/>
	<path style="fill:#0095FF;" d="M512,117.555l-35.699,49.199c-58.5-46.5-135.501-73.499-211.701-75.298h-8.101V30.855
		C338.999,31.455,430.401,58.154,512,117.555z"/>
</g>
<g>
</g>
<g>
</g>
<g>
</g>
<g>
</g>
<g>
</g>
<g>
</g>
<g>
</g>
<g>
</g>
<g>
</g>
<g>
</g>
<g>
</g>
<g>
</g>
<g>
</g>
<g>
</g>
<g>
</g>
</svg>
