<?xml version="1.0" encoding="iso-8859-1"?>
<!-- Generator: Adobe Illustrator 19.0.0, SVG Export Plug-In . SVG Version: 6.00 Build 0)  -->
<svg version="1.1" id="Capa_1" xmlns="http://www.w3.org/2000/svg" xmlns:xlink="http://www.w3.org/1999/xlink" x="0px" y="0px"
	 viewBox="0 0 512 512" style="enable-background:new 0 0 512 512;" xml:space="preserve">
<polygon style="fill:#0095FF;" points="181.029,222.429 181.029,452.023 211.018,452.023 211.018,201.621 196.598,201.621 "/>
<polygon style="fill:#136EF1;" points="450.924,362.059 480.912,362.059 480.912,122.463 450.924,115.572 "/>
<g>
	<path style="fill:#00ABE9;" d="M330.971,50.779v0.3l-149.941,49.782v121.453l149.941-49.782l149.941-50.079V0L330.971,50.779z"/>
	<path style="fill:#00ABE9;" d="M121.053,512c-50.444,0-89.965-26.343-89.965-59.977s39.521-59.977,89.965-59.977
		s89.965,26.343,89.965,59.977S171.497,512,121.053,512z"/>
	<path style="fill:#00ABE9;" d="M390.947,302.082c-23.392,0-44.082,5.698-59.977,14.994c-18.593,10.796-29.988,26.988-29.988,44.982
		c0,17.992,11.396,34.187,29.988,44.982c15.895,9.296,36.585,14.994,59.977,14.994c50.38,0,89.965-26.39,89.965-59.977
		S441.328,302.082,390.947,302.082z"/>
</g>
<g>
	<path style="fill:#0095FF;" d="M480.912,362.059c0,33.587-39.585,59.977-89.965,59.977c-23.392,0-44.082-5.698-59.977-14.994
		v-89.965c15.895-9.296,36.585-14.994,59.977-14.994C441.328,302.082,480.912,328.472,480.912,362.059z"/>
	<polygon style="fill:#0095FF;" points="480.912,0 480.912,122.452 330.971,172.532 330.971,50.779 	"/>
</g>
<g>
</g>
<g>
</g>
<g>
</g>
<g>
</g>
<g>
</g>
<g>
</g>
<g>
</g>
<g>
</g>
<g>
</g>
<g>
</g>
<g>
</g>
<g>
</g>
<g>
</g>
<g>
</g>
<g>
</g>
</svg>
