<?xml version="1.0" encoding="iso-8859-1"?>
<!-- Generator: Adobe Illustrator 19.0.0, SVG Export Plug-In . SVG Version: 6.00 Build 0)  -->
<svg version="1.1" id="Capa_1" xmlns="http://www.w3.org/2000/svg" xmlns:xlink="http://www.w3.org/1999/xlink" x="0px" y="0px"
	 viewBox="0 0 512 512" style="enable-background:new 0 0 512 512;" xml:space="preserve">
<polygon style="fill:#E7E7E7;" points="148.158,150 181,120 181,0 31,0 31,120 48.684,150 "/>
<polygon style="fill:#D3D3D8;" points="441.149,150 481,120 481,0 331,0 331,120 362.791,150 "/>
<path style="fill:#FF3636;" d="M331,120v167c0,41.4-33.6,75-75,75s-75-33.6-75-75V120H31v167c0,124.2,100.8,225,225,225
	s225-100.8,225-225V120H331z"/>
<path style="fill:#F40000;" d="M481,120v167c0,124.2-100.8,225-225,225V362c41.4,0,75-33.6,75-75V120H481z"/>
<g>
</g>
<g>
</g>
<g>
</g>
<g>
</g>
<g>
</g>
<g>
</g>
<g>
</g>
<g>
</g>
<g>
</g>
<g>
</g>
<g>
</g>
<g>
</g>
<g>
</g>
<g>
</g>
<g>
</g>
</svg>
