<?xml version="1.0" encoding="iso-8859-1"?>
<!-- Generator: Adobe Illustrator 19.0.0, SVG Export Plug-In . SVG Version: 6.00 Build 0)  -->
<svg version="1.1" id="Capa_1" xmlns="http://www.w3.org/2000/svg" xmlns:xlink="http://www.w3.org/1999/xlink" x="0px" y="0px"
	 viewBox="0 0 512 512" style="enable-background:new 0 0 512 512;" xml:space="preserve">
<polygon style="fill:#FF3636;" points="317.8,60 266.8,90 211.3,90 194.2,60 215.501,0 296.499,0 "/>
<polygon style="fill:#F40000;" points="266.8,90 256,90 256,0 296.499,0 317.8,60 "/>
<polygon style="fill:#E7E7E7;" points="350.2,150 311.499,180 184.3,180 161.8,150 194.2,60 317.8,60 "/>
<polygon style="fill:#D3D3D8;" points="311.499,180 256,180 256,60 317.8,60 350.2,150 "/>
<polygon style="fill:#FF3636;" points="382.301,240 361.901,270 167.8,270 129.699,240 161.8,150 350.2,150 "/>
<polygon style="fill:#F40000;" points="361.901,270 256,270 256,150 350.2,150 382.301,240 "/>
<polygon style="fill:#E7E7E7;" points="414.401,330 397.301,360 146.201,360 97.599,330 129.699,240 382.301,240 "/>
<polygon style="fill:#D3D3D8;" points="397.301,360 256,360 256,240 382.301,240 414.401,330 "/>
<path style="fill:#FF3636;" d="M414.401,330H97.599l-42.9,120H457.3L414.401,330z"/>
<polygon style="fill:#F40000;" points="457.301,450 256,450 256,330 414.401,330 "/>
<path style="fill:#FDBF00;" d="M0,420v92h512v-92H0z"/>
<rect x="256" y="420" style="fill:#FF9F00;" width="256" height="92"/>
<g>
</g>
<g>
</g>
<g>
</g>
<g>
</g>
<g>
</g>
<g>
</g>
<g>
</g>
<g>
</g>
<g>
</g>
<g>
</g>
<g>
</g>
<g>
</g>
<g>
</g>
<g>
</g>
<g>
</g>
</svg>
