<?xml version="1.0" encoding="iso-8859-1"?>
<!-- Generator: Adobe Illustrator 19.0.0, SVG Export Plug-In . SVG Version: 6.00 Build 0)  -->
<svg version="1.1" id="Capa_1" xmlns="http://www.w3.org/2000/svg" xmlns:xlink="http://www.w3.org/1999/xlink" x="0px" y="0px"
	 viewBox="0 0 512 512" style="enable-background:new 0 0 512 512;" xml:space="preserve">
<rect x="106" y="240" style="fill:#444444;" width="300" height="30"/>
<rect x="256" y="240" style="fill:#292929;" width="150" height="30"/>
<path style="fill:#E7E7E7;" d="M361,240V106.155C361,48.212,314.549,0.331,256.607,0.002C198.43-0.329,151,46.898,151,105v135
	c0,8.284,6.716,15,15,15h180C354.284,255,361,248.284,361,240z"/>
<path style="fill:#D3D3D8;" d="M346,255c8.284,0,15-6.716,15-15V106.155C361,48.212,314.549,0.331,256.607,0.002V255H346z"/>
<path style="fill:#5A5A5A;" d="M151,240v45c0,57.9,47.1,105,105,105s105-47.1,105-105v-45H151z"/>
<g>
	<path style="fill:#444444;" d="M256,240v150c57.9,0,105-47.1,105-105v-45H256z"/>
	<rect x="271" y="120" style="fill:#444444;" width="30" height="30"/>
</g>
<g>
	<rect x="241" y="180" style="fill:#5A5A5A;" width="30" height="30"/>
	<rect x="211" y="120" style="fill:#5A5A5A;" width="30" height="30"/>
	<rect x="241" y="60" style="fill:#5A5A5A;" width="30" height="30"/>
</g>
<g>
	<rect x="256" y="60" style="fill:#444444;" width="15" height="30"/>
	<rect x="256" y="180" style="fill:#444444;" width="15" height="30"/>
	<rect x="241" y="435" style="fill:#444444;" width="30" height="62"/>
</g>
<path style="fill:#5A5A5A;" d="M421,210v75c0,90.899-74.099,165-165,165S91,375.899,91,285v-75h30v75c0,74.399,60.601,135,135,135
	s135-60.601,135-135v-75H421z"/>
<rect x="256" y="435" style="fill:#292929;" width="15" height="62"/>
<path style="fill:#444444;" d="M421,210v75c0,90.899-74.099,165-165,165v-30c74.399,0,135-60.601,135-135v-75H421z"/>
<rect x="151" y="482" style="fill:#5A5A5A;" width="210" height="30"/>
<rect x="256" y="482" style="fill:#444444;" width="105" height="30"/>
<g>
</g>
<g>
</g>
<g>
</g>
<g>
</g>
<g>
</g>
<g>
</g>
<g>
</g>
<g>
</g>
<g>
</g>
<g>
</g>
<g>
</g>
<g>
</g>
<g>
</g>
<g>
</g>
<g>
</g>
</svg>
