<?xml version="1.0" encoding="iso-8859-1"?>
<!-- Generator: Adobe Illustrator 19.0.0, SVG Export Plug-In . SVG Version: 6.00 Build 0)  -->
<svg version="1.1" id="Capa_1" xmlns="http://www.w3.org/2000/svg" xmlns:xlink="http://www.w3.org/1999/xlink" x="0px" y="0px"
	 viewBox="0 0 512 512" style="enable-background:new 0 0 512 512;" xml:space="preserve">
<polygon style="fill:#444444;" points="181.199,218.701 179.099,256.201 176.4,307.5 130.101,360.801 0,360.801 0,151.201 
	129.8,151.201 130.101,150.901 "/>
<polygon style="fill:#292929;" points="179.099,256.201 176.4,307.5 130.101,360.801 0,360.801 0,256.201 "/>
<g>
	<path style="fill:#00ABE9;" d="M392,256.201c0,19.2-5.7,38.399-16.8,54.899l-25.199-16.5c7.8-11.699,11.7-25.199,11.7-38.399
		s-3.9-26.7-11.7-38.401l25.199-16.5C386.3,217.8,392,237,392,256.201z"/>
	<path style="fill:#00ABE9;" d="M512,256.201c0,42.299-12.599,84.6-37.2,121.5l-6.599,10.201L443.3,371.1l6.599-9.899
		c21.301-31.8,32.1-68.401,32.1-105c0-36.601-10.8-73.2-32.1-105L443.3,141.3l24.901-16.8l6.599,10.201
		C499.401,171.601,512,213.9,512,256.201z"/>
	<path style="fill:#00ABE9;" d="M451.702,256.201c0,30.599-8.701,61.199-26.7,88.2L418.4,354.6l-25.199-16.8l6.899-9.899
		c14.399-21.901,21.601-46.802,21.601-71.7c0-24.901-7.202-49.801-21.601-71.7l-6.899-9.901l25.199-16.8l6.601,10.201
		C443,195,451.702,225.6,451.702,256.201z"/>
</g>
<polygon style="fill:#5A5A5A;" points="330,0 330,512 130.101,360.801 130.101,150.901 "/>
<polygon style="fill:#444444;" points="130.101,256.201 330,256.201 330,512 130.101,360.801 "/>
<g>
	<path style="fill:#0095FF;" d="M361.702,256.201H392c0,19.2-5.7,38.399-16.8,54.899l-25.199-16.5
		C357.801,282.901,361.702,269.401,361.702,256.201z"/>
	<path style="fill:#0095FF;" d="M451.702,256.201c0,30.599-8.701,61.199-26.7,88.2L418.4,354.6l-25.199-16.8l6.899-9.899
		c14.399-21.901,21.601-46.802,21.601-71.7L451.702,256.201L451.702,256.201z"/>
	<path style="fill:#0095FF;" d="M512,256.201c0,42.299-12.599,84.6-37.2,121.5l-6.599,10.201L443.3,371.1l6.599-9.899
		c21.301-31.8,32.1-68.401,32.1-105H512z"/>
</g>
<g>
</g>
<g>
</g>
<g>
</g>
<g>
</g>
<g>
</g>
<g>
</g>
<g>
</g>
<g>
</g>
<g>
</g>
<g>
</g>
<g>
</g>
<g>
</g>
<g>
</g>
<g>
</g>
<g>
</g>
</svg>
