<?xml version="1.0" encoding="iso-8859-1"?>
<!-- Generator: Adobe Illustrator 19.0.0, SVG Export Plug-In . SVG Version: 6.00 Build 0)  -->
<svg version="1.1" id="Capa_1" xmlns="http://www.w3.org/2000/svg" xmlns:xlink="http://www.w3.org/1999/xlink" x="0px" y="0px"
	 viewBox="0 0 512 512" style="enable-background:new 0 0 512 512;" xml:space="preserve">
<polygon style="fill:#5A5A5A;" points="331,0 331,75 301,75 301,30 211,30 211,75 181,75 181,0 "/>
<polygon style="fill:#444444;" points="301,30 256,30 256,0 331,0 331,75 301,75 "/>
<path style="fill:#D3D3D8;" d="M61,120v392h390V120H61z"/>
<rect x="256" y="120" style="fill:#BABAC0;" width="195" height="392"/>
<g>
	<path style="fill:#E7E7E7;" d="M31,60v90h450V60H31z"/>
	<rect x="241" y="180" style="fill:#E7E7E7;" width="30" height="271"/>
	<rect x="151" y="180" style="fill:#E7E7E7;" width="30" height="271"/>
</g>
<g>
	<rect x="331" y="180" style="fill:#D3D3D8;" width="30" height="271"/>
	<rect x="256" y="180" style="fill:#D3D3D8;" width="15" height="271"/>
	<rect x="256" y="60" style="fill:#D3D3D8;" width="225" height="90"/>
</g>
<g>
</g>
<g>
</g>
<g>
</g>
<g>
</g>
<g>
</g>
<g>
</g>
<g>
</g>
<g>
</g>
<g>
</g>
<g>
</g>
<g>
</g>
<g>
</g>
<g>
</g>
<g>
</g>
<g>
</g>
</svg>
