<?xml version="1.0" encoding="iso-8859-1"?>
<!-- Generator: Adobe Illustrator 19.0.0, SVG Export Plug-In . SVG Version: 6.00 Build 0)  -->
<svg version="1.1" id="Capa_1" xmlns="http://www.w3.org/2000/svg" xmlns:xlink="http://www.w3.org/1999/xlink" x="0px" y="0px"
	 viewBox="0 0 512 512" style="enable-background:new 0 0 512 512;" xml:space="preserve">
<path style="fill:#FDBF00;" d="M60,0v512h392V0H60z"/>
<g>
	<path style="fill:#D3D3D8;" d="M437,31c0,53.839,0-34.348,0,90h75V31H437z"/>
	<path style="fill:#D3D3D8;" d="M437,151c0,53.839,0-34.348,0,90h75v-90H437z"/>
	<path style="fill:#D3D3D8;" d="M437,271c0,53.839,0-34.348,0,90h75v-90H437z"/>
	<path style="fill:#D3D3D8;" d="M437,391c0,53.839,0-34.348,0,90h75v-90H437z"/>
</g>
<rect x="256" style="fill:#FF9F00;" width="196" height="512"/>
<g>
	<path style="fill:#5A5A5A;" d="M90,512H0V0h90V512z"/>
	<path style="fill:#5A5A5A;" d="M358.599,322.599c-22.5-33.6-59.399-52.8-101.699-52.8H256c-42.299,0.3-80.7,20.101-102.599,52.8
		l-2.401,3.9V391h210v-64.501L358.599,322.599z"/>
	<path style="fill:#5A5A5A;" d="M256,121c-41.4,0-75,33.6-75,75s33.6,75,75,75s75-33.6,75-75S297.4,121,256,121z"/>
</g>
<g>
	<path style="fill:#444444;" d="M331,196c0,41.4-33.6,75-75,75V121C297.4,121,331,154.6,331,196z"/>
	<path style="fill:#444444;" d="M361,326.499V391H256V269.799h0.901c42.299,0,79.199,19.2,101.699,52.8L361,326.499z"/>
</g>
<g>
</g>
<g>
</g>
<g>
</g>
<g>
</g>
<g>
</g>
<g>
</g>
<g>
</g>
<g>
</g>
<g>
</g>
<g>
</g>
<g>
</g>
<g>
</g>
<g>
</g>
<g>
</g>
<g>
</g>
</svg>
