<?xml version="1.0" encoding="iso-8859-1"?>
<!-- Generator: Adobe Illustrator 19.0.0, SVG Export Plug-In . SVG Version: 6.00 Build 0)  -->
<svg version="1.1" id="Capa_1" xmlns="http://www.w3.org/2000/svg" xmlns:xlink="http://www.w3.org/1999/xlink" x="0px" y="0px"
	 viewBox="0 0 512 512" style="enable-background:new 0 0 512 512;" xml:space="preserve">
<polygon style="fill:#444444;" points="184.199,219.701 182.099,257.201 179.4,308.5 133.101,361.801 0,361.801 0,152.201 
	132.8,152.201 133.101,151.901 "/>
<polygon style="fill:#292929;" points="182.099,257.201 179.4,308.5 133.101,361.801 0,361.801 0,257.201 "/>
<polygon style="fill:#5A5A5A;" points="333,0 333,512 133.101,361.801 133.101,151.901 "/>
<polygon style="fill:#FF3636;" points="462.801,257.201 512,306.7 491.001,327.7 441.501,278.5 392,327.7 371.001,306.7 
	420.2,257.201 371.001,207.7 392,186.7 441.501,235.9 491.001,186.7 512,207.7 "/>
<polygon style="fill:#444444;" points="133.101,257.201 333,257.201 333,512 133.101,361.801 "/>
<polygon style="fill:#F40000;" points="512,306.7 491.001,327.7 441.501,278.5 392,327.7 371.001,306.7 420.2,257.201 
	462.801,257.201 "/>
<g>
</g>
<g>
</g>
<g>
</g>
<g>
</g>
<g>
</g>
<g>
</g>
<g>
</g>
<g>
</g>
<g>
</g>
<g>
</g>
<g>
</g>
<g>
</g>
<g>
</g>
<g>
</g>
<g>
</g>
</svg>
