<?xml version="1.0" encoding="iso-8859-1"?>
<!-- Generator: Adobe Illustrator 19.0.0, SVG Export Plug-In . SVG Version: 6.00 Build 0)  -->
<svg version="1.1" id="Capa_1" xmlns="http://www.w3.org/2000/svg" xmlns:xlink="http://www.w3.org/1999/xlink" x="0px" y="0px"
	 viewBox="0 0 512 512" style="enable-background:new 0 0 512 512;" xml:space="preserve">
<rect x="181" style="fill:#E7E7E7;" width="150" height="77"/>
<rect x="256" style="fill:#D3D3D8;" width="75" height="77"/>
<path style="fill:#5A5A5A;" d="M91,62v450h330V62H91z"/>
<rect x="256" y="62" style="fill:#444444;" width="165" height="450"/>
<g>
	<rect x="172" y="353" style="fill:#77DD00;" width="168" height="77.999"/>
	<rect x="172" y="173" style="fill:#77DD00;" width="168" height="77.999"/>
	<rect x="172" y="263" style="fill:#77DD00;" width="168" height="77.999"/>
</g>
<path style="fill:#E7E7E7;" d="M151,152v300h210V152H151z M331,422H181v-60h150V422z M331,332H181v-60h150V332z M331,242H181v-60
	h150V242z"/>
<g>
	<rect x="256" y="173" style="fill:#66BB00;" width="84" height="77.999"/>
	<rect x="256" y="263" style="fill:#66BB00;" width="84" height="77.999"/>
	<rect x="256" y="353" style="fill:#66BB00;" width="84" height="77.999"/>
</g>
<polygon style="fill:#D3D3D8;" points="361,152 361,452 256,452 256,422 331,422 331,362 256,362 256,332 331,332 331,272 256,272 
	256,242 331,242 331,182 256,182 256,152 "/>
<g>
</g>
<g>
</g>
<g>
</g>
<g>
</g>
<g>
</g>
<g>
</g>
<g>
</g>
<g>
</g>
<g>
</g>
<g>
</g>
<g>
</g>
<g>
</g>
<g>
</g>
<g>
</g>
<g>
</g>
</svg>
