<?xml version="1.0" encoding="iso-8859-1"?>
<!-- Generator: Adobe Illustrator 19.0.0, SVG Export Plug-In . SVG Version: 6.00 Build 0)  -->
<svg version="1.1" id="Capa_1" xmlns="http://www.w3.org/2000/svg" xmlns:xlink="http://www.w3.org/1999/xlink" x="0px" y="0px"
	 viewBox="0 0 512 512" style="enable-background:new 0 0 512 512;" xml:space="preserve">
<path style="fill:#5A5A5A;" d="M11.909,190.503C3.999,173.013,0,154.336,0,135C0,60.557,60.557,0,135,0
	c19.336,0,38.013,3.999,55.503,11.909L178.14,39.243C164.561,33.105,150.044,30,135,30C77.109,30,30,77.109,30,135
	c0,15.044,3.105,29.561,9.243,43.14L11.909,190.503z"/>
<g>
	<path style="fill:#444444;" d="M500.091,190.503l-27.334-12.363C478.895,164.561,482,150.044,482,135c0-57.891-47.109-105-105-105
		c-15.044,0-29.561,3.105-43.14,9.243l-12.363-27.334C338.987,3.999,357.664,0,377,0c74.443,0,135,60.557,135,135
		C512,154.336,508.001,173.013,500.091,190.503z"/>
	<path style="fill:#444444;" d="M377,512c-19.336,0-38.013-3.999-55.503-11.909l12.363-27.334C347.439,478.895,361.956,482,377,482
		c57.891,0,105-47.109,105-105c0-15.044-3.105-29.561-9.243-43.14l27.334-12.363C508.001,338.987,512,357.664,512,377
		C512,451.443,451.443,512,377,512z"/>
</g>
<path style="fill:#5A5A5A;" d="M135,512C60.557,512,0,451.443,0,377c0-19.336,3.999-38.013,11.909-55.503l27.334,12.363
	C33.105,347.439,30,361.956,30,377c0,57.891,47.109,105,105,105c15.044,0,29.561-3.105,43.14-9.243l12.363,27.334
	C173.013,508.001,154.336,512,135,512z"/>
<g>
	<path style="fill:#E7E7E7;" d="M161.4,180l-39.526-45.938L11.1,180C4.122,204.82,0,230.865,0,256s4.122,51.18,11.1,76l116.4,49.688
		L161.4,332c-15.703-19.629-26.4-46.945-26.4-76S145.697,199.629,161.4,180z"/>
	<path style="fill:#E7E7E7;" d="M400.401,102.299L332,161.4c-19.501-15.6-46.901-26.4-76-26.4c-28.5,0-55,9.6-76,26.4l-40.201-63.9
		L180,11.4C198.6,5.099,229.9,0,256,0c25.201,0,51.099,4.2,76,11.1L400.401,102.299z"/>
</g>
<path style="fill:#D3D3D8;" d="M500.6,180l-91.726-30L350.6,180c16.851,21.064,26.4,47.5,26.4,76c0,29.055-10.697,56.371-26.4,76
	l93.9,41.25L500.9,332c6.528-23.218,11.1-45.993,11.1-76C512,229.871,506.977,198.554,500.6,180z"/>
<path style="fill:#E7E7E7;" d="M374.299,424.701L332,500.6c-18.6,6.301-49.9,11.4-76,11.4s-57.4-5.099-76-11.4l-40.201-91.8
	L180,350.6c21,16.8,47.5,26.4,76,26.4s55-9.6,76-26.4L374.299,424.701z"/>
<g>
	<path style="fill:#D3D3D8;" d="M332,350.6l42.299,74.101L332,500.6c-18.6,6.301-49.9,11.4-76,11.4V377
		C284.5,377,311,367.4,332,350.6z"/>
	<path style="fill:#D3D3D8;" d="M332,161.4c-19.501-15.6-46.901-26.4-76-26.4V0c25.201,0,51.099,4.2,76,11.1l68.401,91.199
		L332,161.4z"/>
</g>
<path style="fill:#FF3636;" d="M180,11.4v150c-6.899,5.4-13.2,11.7-18.6,18.6H11.1C36,99.3,99.6,36,180,11.4z"/>
<path style="fill:#F40000;" d="M500.6,180h-150c-5.4-6.899-11.7-13.2-18.6-18.6V11.1C412.7,36,476,99.6,500.6,180z"/>
<path style="fill:#FF3636;" d="M180,350.6v150C99.6,476,36,412.7,11.1,332h150.3C166.8,338.899,173.101,345.2,180,350.6z"/>
<path style="fill:#F40000;" d="M500.9,332C476,412.7,412.4,476,332,500.6v-150c6.899-5.4,13.2-11.7,18.6-18.6H500.9z"/>
<g>
</g>
<g>
</g>
<g>
</g>
<g>
</g>
<g>
</g>
<g>
</g>
<g>
</g>
<g>
</g>
<g>
</g>
<g>
</g>
<g>
</g>
<g>
</g>
<g>
</g>
<g>
</g>
<g>
</g>
</svg>
