<?xml version="1.0" encoding="iso-8859-1"?>
<!-- Generator: Adobe Illustrator 19.0.0, SVG Export Plug-In . SVG Version: 6.00 Build 0)  -->
<svg version="1.1" id="Capa_1" xmlns="http://www.w3.org/2000/svg" xmlns:xlink="http://www.w3.org/1999/xlink" x="0px" y="0px"
	 viewBox="0 0 512 512" style="enable-background:new 0 0 512 512;" xml:space="preserve">
<path style="fill:#5A5A5A;" d="M512,298.299v-84.598L442.599,199.9c-3.898-12.599-8.699-24.6-15-36.301l38.701-57.9l-60-60
	L348.4,84.4c-11.7-6.301-23.701-11.102-36.301-15L298.299,0h-84.598L199.9,69.401c-12.599,3.898-24.6,8.699-36.301,15L105.7,45.7
	l-60,60l38.701,57.9c-6.301,11.7-11.102,23.701-15,36.301L0,213.701v84.598L69.401,312.1c3.898,12.599,8.699,24.6,15,36.301
	L45.7,406.3l60,60l57.9-38.701c11.7,6.301,23.701,11.102,36.301,15l13.8,69.401h84.598l13.801-69.401
	c12.599-3.898,24.6-8.699,36.301-15l57.9,38.701l60-60L427.6,348.4c6.301-11.7,11.102-23.701,15-36.301L512,298.299z M256,361
	c-57.9,0-105-47.1-105-105s47.1-105,105-105s105,47.1,105,105S313.9,361,256,361z"/>
<path style="fill:#444444;" d="M442.599,312.1c-3.898,12.599-8.699,24.6-15,36.301l38.701,57.9l-60,60L348.4,427.6
	c-11.7,6.301-23.701,11.102-36.301,15l-13.8,69.4H256V361c57.9,0,105-47.1,105-105s-47.1-105-105-105V0h42.299L312.1,69.401
	c12.599,3.898,24.6,8.699,36.301,15L406.3,45.7l60,60l-38.701,57.9c6.301,11.7,11.102,23.701,15,36.301l69.401,13.8v84.598
	L442.599,312.1z"/>
<g>
</g>
<g>
</g>
<g>
</g>
<g>
</g>
<g>
</g>
<g>
</g>
<g>
</g>
<g>
</g>
<g>
</g>
<g>
</g>
<g>
</g>
<g>
</g>
<g>
</g>
<g>
</g>
<g>
</g>
</svg>
