<?xml version="1.0" encoding="iso-8859-1"?>
<!-- Generator: Adobe Illustrator 19.0.0, SVG Export Plug-In . SVG Version: 6.00 Build 0)  -->
<svg version="1.1" id="Capa_1" xmlns="http://www.w3.org/2000/svg" xmlns:xlink="http://www.w3.org/1999/xlink" x="0px" y="0px"
	 viewBox="0 0 512 512" style="enable-background:new 0 0 512 512;" xml:space="preserve">
<path style="fill:#E7E7E7;" d="M449.9,235.6c1.5-8.101,2.1-16.201,2.1-24.6c0-74.401-61.601-135-136-135
	c-21.301,0-41.7,5.099-60,14.399c-22.8,11.1-42.299,28.801-55.8,51c-32.701-10.501-67-6-94.9,13.2
	c-27.599,18.9-44.101,48.9-45.3,81.899C23.699,253.9,0,290.499,0,331c0,6.899,0.601,13.799,2.1,20.4v0.3
	C11.7,400.6,54.9,436,105,436h302c57.9,0,105-47.1,105-105C512,290.2,488,253.299,449.9,235.6z"/>
<path style="fill:#D3D3D8;" d="M512,331c0,57.9-47.1,105-105,105H256V90.399C274.3,81.099,294.699,76,316,76
	c74.399,0,136,60.599,136,135c0,8.399-0.601,16.5-2.1,24.6C488,253.299,512,290.2,512,331z"/>
<g>
</g>
<g>
</g>
<g>
</g>
<g>
</g>
<g>
</g>
<g>
</g>
<g>
</g>
<g>
</g>
<g>
</g>
<g>
</g>
<g>
</g>
<g>
</g>
<g>
</g>
<g>
</g>
<g>
</g>
</svg>
