<?xml version="1.0" encoding="iso-8859-1"?>
<!-- Generator: Adobe Illustrator 19.0.0, SVG Export Plug-In . SVG Version: 6.00 Build 0)  -->
<svg version="1.1" id="Capa_1" xmlns="http://www.w3.org/2000/svg" xmlns:xlink="http://www.w3.org/1999/xlink" x="0px" y="0px"
	 viewBox="0 0 512 512" style="enable-background:new 0 0 512 512;" xml:space="preserve">
<polygon style="fill:#444444;" points="490.663,438.901 512,512 438.478,491.086 430.841,456.721 463.297,424.265 "/>
<polygon style="fill:#5A5A5A;" points="463.297,424.265 490.663,438.901 512,512 443.569,443.993 "/>
<path style="fill:#FFC473;" d="M459.054,310.562c3.492,15.846,26.858,108.974,31.609,128.34l-52.185,52.185
	c-40.323-9.889-116.883-29.197-128.129-31.82l2.122-28.851l58.76-58.76l66.397-66.822L459.054,310.562z"/>
<polygon style="fill:#FF9F00;" points="445.477,296.985 459.054,310.562 310.349,459.266 84.853,233.77 84.64,191.556 
	195.374,80.822 233.345,85.277 "/>
<path style="fill:#FFD396;" d="M437.628,304.834l21.426,5.728c3.492,15.846,26.858,108.974,31.609,128.34l-26.093,26.093
	l-93.339-93.339L437.628,304.834z"/>
<polygon style="fill:#FDBF00;" points="445.477,296.985 459.054,310.562 384.595,385.02 137.886,138.311 195.374,80.822 
	233.345,85.277 "/>
<path style="fill:#444444;" d="M74.246,74.671L0,148.917l84.853,84.853L233.345,85.277L148.492,0L74.246,74.671z"/>
<polygon style="fill:#5A5A5A;" points="233.345,85.277 159.099,159.524 74.246,74.671 148.492,0 "/>
<g>
</g>
<g>
</g>
<g>
</g>
<g>
</g>
<g>
</g>
<g>
</g>
<g>
</g>
<g>
</g>
<g>
</g>
<g>
</g>
<g>
</g>
<g>
</g>
<g>
</g>
<g>
</g>
<g>
</g>
</svg>
