<?xml version="1.0" encoding="iso-8859-1"?>
<!-- Generator: Adobe Illustrator 19.0.0, SVG Export Plug-In . SVG Version: 6.00 Build 0)  -->
<svg version="1.1" id="Capa_1" xmlns="http://www.w3.org/2000/svg" xmlns:xlink="http://www.w3.org/1999/xlink" x="0px" y="0px"
	 viewBox="0 0 512.001 512.001" style="enable-background:new 0 0 512.001 512.001;" xml:space="preserve">
<path style="fill:#FDBF00;" d="M420.971,165.001c0,28.801-7.5,57.299-21.899,82.8c-17.701,29.7-28.5,59.399-32.1,87.599l-6,40.8
	l-23.402,29.001H186.971l-36-29.001l-6-41.1c-3.9-30-14.399-58.5-30.3-84.899c-21.899-36-28.799-79.501-19.799-121.8
	C108.372,66.9,158.772,16.8,220.272,3.6c12.001-2.401,24-3.6,35.7-3.6c37.8,0,74.399,12.599,103.801,36.599
	C398.771,68.402,420.971,114.902,420.971,165.001z"/>
<path style="fill:#FF9F00;" d="M420.971,165.001c0,28.801-7.5,57.299-21.899,82.8c-17.701,29.7-28.5,59.399-32.1,87.599l-6,40.8
	l-23.402,29.001h-81.599V0.001c37.8,0,74.399,12.599,103.801,36.599C398.771,68.402,420.971,114.902,420.971,165.001z"/>
<g>
	<path style="fill:#FFD400;" d="M255.971,120.001c-24.901,0-45,20.099-45,45s20.099,45,45,45s45-20.099,45-45
		S280.871,120.001,255.971,120.001z"/>
	<rect x="240.97" y="195.001" style="fill:#FFD400;" width="30" height="212"/>
</g>
<g>
	<path style="fill:#FDBF00;" d="M255.971,210.001v-90c24.901,0,45,20.099,45,45S280.871,210.001,255.971,210.001z"/>
	<rect x="255.97" y="195.001" style="fill:#FDBF00;" width="15" height="212"/>
</g>
<polygon style="fill:#E7E7E7;" points="360.971,376.2 360.971,443.302 342.971,452.001 175.271,452.001 150.971,443.302 
	150.971,376.2 "/>
<g>
	<polygon style="fill:#D3D3D8;" points="360.971,376.2 360.971,443.302 342.971,452.001 255.971,452.001 255.971,376.2 	"/>
	<polygon style="fill:#D3D3D8;" points="360.971,443.302 292.271,512.001 219.67,512.001 150.971,443.302 	"/>
</g>
<polygon style="fill:#BABAC0;" points="360.971,443.302 292.271,512.001 255.971,512.001 255.971,443.302 "/>
<g>
</g>
<g>
</g>
<g>
</g>
<g>
</g>
<g>
</g>
<g>
</g>
<g>
</g>
<g>
</g>
<g>
</g>
<g>
</g>
<g>
</g>
<g>
</g>
<g>
</g>
<g>
</g>
<g>
</g>
</svg>
