<?xml version="1.0" encoding="iso-8859-1"?>
<!-- Generator: Adobe Illustrator 19.0.0, SVG Export Plug-In . SVG Version: 6.00 Build 0)  -->
<svg version="1.1" id="Capa_1" xmlns="http://www.w3.org/2000/svg" xmlns:xlink="http://www.w3.org/1999/xlink" x="0px" y="0px"
	 viewBox="0 0 512 512" style="enable-background:new 0 0 512 512;" xml:space="preserve">
<path style="fill:#0095FF;" d="M497,256c0,132.299-108.701,241-241,241S15,388.299,15,256C15,123.699,123.701,15,256,15
	S497,123.699,497,256z"/>
<path style="fill:#136EF1;" d="M497,256c0,132.299-108.701,241-241,241V15C388.299,15,497,123.699,497,256z"/>
<path style="fill:#25D9F8;" d="M256,0C115.3,0,0,115.3,0,256s115.3,256,256,256s256-115.3,256-256S396.7,0,256,0z M207.4,36.4
	C181.3,61,160.3,89.5,144.699,121H76.3C108.1,78.999,153.999,48.399,207.4,36.4z M57.1,151h74.399C121,179.5,115,209.799,113.5,241
	H31.901C33.999,208.599,42.7,178.299,57.1,151z M57.1,361c-14.399-27.301-23.101-57.601-25.199-90H113.5
	c1.5,31.199,7.5,61.5,17.999,90H57.1z M76.3,391h68.399c15.601,31.5,36.601,60,62.701,84.6C153.999,463.599,108.1,432.999,76.3,391z
	 M241,465.7c-25.499-21-46.5-46.5-62.401-74.7H241V465.7z M241,361h-77.1c-11.999-28.2-18.6-58.5-20.4-90H241V361z M241,241h-97.5
	c1.8-31.5,8.401-61.8,20.4-90H241V241z M241,121h-62.401C194.5,92.8,215.501,67.299,241,46.3V121z M454.9,151
	c14.399,27.299,23.101,57.599,25.199,90H398.5c-1.5-31.201-7.5-61.5-17.999-90H454.9z M435.7,121h-68.399
	C351.7,89.5,330.7,61,304.6,36.4C358.001,48.399,403.9,78.999,435.7,121z M271,46.3c25.499,20.999,46.5,46.5,62.401,74.7H271V46.3z
	 M271,151h77.1c11.999,28.2,18.6,58.5,20.4,90H271V151z M271,271h97.5c-1.8,31.5-8.401,61.8-20.4,90H271V271z M271,465.7V391h62.401
	C317.5,419.2,296.499,444.699,271,465.7z M304.6,475.6c26.1-24.6,47.1-53.101,62.701-84.6H435.7
	C403.9,432.999,358.001,463.599,304.6,475.6z M454.9,361h-74.399C391,332.5,397,302.199,398.5,271h81.599
	C478.001,303.399,469.3,333.699,454.9,361z"/>
<path style="fill:#00C0F1;" d="M256,0v512c140.7,0,256-115.3,256-256S396.7,0,256,0z M454.9,151
	c14.399,27.299,23.101,57.599,25.199,90H398.5c-1.5-31.201-7.5-61.5-17.999-90H454.9z M435.7,121h-68.399
	C351.7,89.5,330.7,61,304.6,36.4C358.001,48.399,403.9,78.999,435.7,121z M271,46.3c25.499,20.999,46.5,46.5,62.401,74.7H271V46.3z
	 M271,151h77.1c11.999,28.2,18.6,58.5,20.4,90H271V151z M271,271h97.5c-1.8,31.5-8.401,61.8-20.4,90H271V271z M271,465.7V391h62.401
	C317.5,419.2,296.499,444.699,271,465.7z M304.6,475.6c26.1-24.6,47.1-53.101,62.701-84.6H435.7
	C403.9,432.999,358.001,463.599,304.6,475.6z M454.9,361h-74.399C391,332.5,397,302.199,398.5,271h81.599
	C478.001,303.399,469.3,333.699,454.9,361z"/>
<g>
</g>
<g>
</g>
<g>
</g>
<g>
</g>
<g>
</g>
<g>
</g>
<g>
</g>
<g>
</g>
<g>
</g>
<g>
</g>
<g>
</g>
<g>
</g>
<g>
</g>
<g>
</g>
<g>
</g>
</svg>
