<?xml version="1.0" encoding="iso-8859-1"?>
<!-- Generator: Adobe Illustrator 19.0.0, SVG Export Plug-In . SVG Version: 6.00 Build 0)  -->
<svg version="1.1" id="Capa_1" xmlns="http://www.w3.org/2000/svg" xmlns:xlink="http://www.w3.org/1999/xlink" x="0px" y="0px"
	 viewBox="0 0 512 512" style="enable-background:new 0 0 512 512;" xml:space="preserve">
<rect x="15" y="46" style="fill:#25D9F8;" width="482" height="300"/>
<g>
	<path style="fill:#444444;" d="M181,391v90h150v-90H181z"/>
	<path style="fill:#444444;" d="M0,31v300l27.599,30H484.4l27.6-30V31H0z M482,331H30V61h452V331z"/>
</g>
<rect x="256" y="391" style="fill:#292929;" width="75" height="90"/>
<rect x="256" y="46" style="fill:#00C0F1;" width="241" height="300"/>
<polygon style="fill:#292929;" points="512,31 512,331 484.401,361 256,361 256,331 482,331 482,61 256,61 256,31 "/>
<path style="fill:#D3D3D8;" d="M0,331v90h512v-90H0z"/>
<rect x="256" y="331" style="fill:#BABAC0;" width="256" height="90"/>
<rect x="121" y="451" style="fill:#5A5A5A;" width="270" height="30"/>
<rect x="256" y="451" style="fill:#444444;" width="135" height="30"/>
<g>
</g>
<g>
</g>
<g>
</g>
<g>
</g>
<g>
</g>
<g>
</g>
<g>
</g>
<g>
</g>
<g>
</g>
<g>
</g>
<g>
</g>
<g>
</g>
<g>
</g>
<g>
</g>
<g>
</g>
</svg>
