<?xml version="1.0" encoding="iso-8859-1"?>
<!-- Generator: Adobe Illustrator 19.0.0, SVG Export Plug-In . SVG Version: 6.00 Build 0)  -->
<svg version="1.1" id="Capa_1" xmlns="http://www.w3.org/2000/svg" xmlns:xlink="http://www.w3.org/1999/xlink" x="0px" y="0px"
	 viewBox="0 0 512 512" style="enable-background:new 0 0 512 512;" xml:space="preserve">
<polygon style="fill:#FF3636;" points="363.295,257.654 512,406.359 459.179,459.179 405.934,512 257.442,363.508 262.11,324.051 
	332.114,254.048 "/>
<polygon style="fill:#F40000;" points="293.081,293.081 459.179,459.179 405.934,512 257.442,363.508 262.11,324.051 "/>
<g>
	<path style="fill:#D3D3D8;" d="M443.147,110.945l60.032-60.032c16.547,34.365,9.334,75.519-17.606,102.459
		c-35.215,35.215-92.702,35.002-126.643,0.636l-0.636-0.636c-34.365-34.365-35.426-91.429,0-127.279
		C375.264,9.122,397.962,0,422.146,0c13.577,0,26.517,2.758,38.819,8.698L400.933,68.73L443.147,110.945z"/>
	<polygon style="fill:#D3D3D8;" points="394.434,160.226 154.726,399.736 128.635,383.402 102.966,367.069 349.673,120.98 
		372.159,140.496 	"/>
</g>
<g>
	<path style="fill:#BABAC0;" d="M503.179,50.912c16.547,34.365,9.334,75.519-17.606,102.459
		c-35.215,35.215-92.702,35.002-126.643,0.636l63.64-63.64l20.577,20.577L503.179,50.912z"/>
	<polygon style="fill:#BABAC0;" points="394.434,160.226 154.726,399.736 128.635,383.402 372.159,140.496 	"/>
</g>
<polygon style="fill:#E7E7E7;" points="126.904,42.426 126.904,84.853 314.505,272.079 299.02,299.02 283.322,326.173 
	84.853,127.879 42.851,127.879 0,42.426 21.638,21.213 42.851,0 "/>
<path style="fill:#D3D3D8;" d="M153.878,358.158c35.85,35.85,34.79,92.914,0,127.279c-28.214,28.214-69.366,33.73-102.46,17.607
	l60.034-60.034l-42.214-42.214L9.204,460.831C-7.343,426.466-0.342,385.1,26.599,358.159
	C62.025,322.732,118.877,323.157,153.878,358.158z"/>
<path style="fill:#BABAC0;" d="M90.239,421.798l63.64-63.64c35.85,35.85,34.79,92.914,0,127.279
	c-28.214,28.214-69.366,33.73-102.46,17.607l60.034-60.034L90.239,421.798z"/>
<polygon style="fill:#D3D3D8;" points="21.638,21.213 299.02,299.02 283.322,326.173 84.853,127.879 42.851,127.879 0,42.426 "/>
<polygon style="fill:#5A5A5A;" points="320.869,215.227 363.295,257.654 257.442,363.508 215.227,321.294 268.048,268.048 "/>
<polygon style="fill:#444444;" points="268.048,268.048 310.475,310.475 257.442,363.508 215.227,321.294 "/>
<g>
</g>
<g>
</g>
<g>
</g>
<g>
</g>
<g>
</g>
<g>
</g>
<g>
</g>
<g>
</g>
<g>
</g>
<g>
</g>
<g>
</g>
<g>
</g>
<g>
</g>
<g>
</g>
<g>
</g>
</svg>
