<?xml version="1.0" encoding="iso-8859-1"?>
<!-- Generator: Adobe Illustrator 19.0.0, SVG Export Plug-In . SVG Version: 6.00 Build 0)  -->
<svg version="1.1" id="Capa_1" xmlns="http://www.w3.org/2000/svg" xmlns:xlink="http://www.w3.org/1999/xlink" x="0px" y="0px"
	 viewBox="0 0 512 512" style="enable-background:new 0 0 512 512;" xml:space="preserve">
<path style="fill:#FFD400;" d="M256,0C115.3,0,0,115.3,0,256s115.3,256,256,256s256-115.3,256-256S396.7,0,256,0z M256,316
	c-32.999,0-60-27.001-60-60c0-33.001,27.001-60,60-60s60,26.999,60,60C316,288.999,288.999,316,256,316z"/>
<path style="fill:#FDBF00;" d="M512,256c0,140.7-115.3,256-256,256V316c32.999,0,60-27.001,60-60c0-33.001-27.001-60-60-60V0
	C396.7,0,512,115.3,512,256z"/>
<path style="fill:#5A5A5A;" d="M256,151c-57.9,0-105,47.1-105,105s47.1,105,105,105s105-47.1,105-105S313.9,151,256,151z M256,301
	c-24.901,0-45-20.101-45-45c0-24.901,20.099-45,45-45s45,20.099,45,45C301,280.899,280.901,301,256,301z"/>
<path style="fill:#444444;" d="M361,256c0,57.9-47.1,105-105,105v-60c24.901,0,45-20.101,45-45c0-24.901-20.099-45-45-45v-60
	C313.9,151,361,198.1,361,256z"/>
<g>
</g>
<g>
</g>
<g>
</g>
<g>
</g>
<g>
</g>
<g>
</g>
<g>
</g>
<g>
</g>
<g>
</g>
<g>
</g>
<g>
</g>
<g>
</g>
<g>
</g>
<g>
</g>
<g>
</g>
</svg>
