<?xml version="1.0" encoding="iso-8859-1"?>
<!-- Generator: Adobe Illustrator 19.0.0, SVG Export Plug-In . SVG Version: 6.00 Build 0)  -->
<svg version="1.1" id="Capa_1" xmlns="http://www.w3.org/2000/svg" xmlns:xlink="http://www.w3.org/1999/xlink" x="0px" y="0px"
	 viewBox="0 0 512 512" style="enable-background:new 0 0 512 512;" xml:space="preserve">
<path style="fill:#5A5A5A;" d="M256,0C165.099,0,91,74.099,91,165v92h90v-92c0-41.4,33.6-75,75-75s75,33.6,75,75v92h90v-92
	C421,74.099,346.901,0,256,0z"/>
<path style="fill:#444444;" d="M421,165v92h-90v-92c0-41.4-33.6-75-75-75V0C346.901,0,421,74.099,421,165z"/>
<path style="fill:#FFD400;" d="M61,242v270h390V242H61z"/>
<rect x="256" y="242" style="fill:#FF9F00;" width="195" height="270"/>
<g>
	<path style="fill:#5A5A5A;" d="M256,302c-24.901,0-45,20.099-45,45c0,24.899,20.099,45,45,45s45-20.101,45-45
		C301,322.099,280.901,302,256,302z"/>
	<rect x="241" y="377" style="fill:#5A5A5A;" width="30" height="75"/>
</g>
<g>
	<path style="fill:#444444;" d="M301,347c0,24.899-20.099,45-45,45v-90C280.901,302,301,322.099,301,347z"/>
	<rect x="256" y="377" style="fill:#444444;" width="15" height="75"/>
</g>
<g>
</g>
<g>
</g>
<g>
</g>
<g>
</g>
<g>
</g>
<g>
</g>
<g>
</g>
<g>
</g>
<g>
</g>
<g>
</g>
<g>
</g>
<g>
</g>
<g>
</g>
<g>
</g>
<g>
</g>
</svg>
