<?xml version="1.0" encoding="iso-8859-1"?>
<!-- Generator: Adobe Illustrator 19.0.0, SVG Export Plug-In . SVG Version: 6.00 Build 0)  -->
<svg version="1.1" id="Capa_1" xmlns="http://www.w3.org/2000/svg" xmlns:xlink="http://www.w3.org/1999/xlink" x="0px" y="0px"
	 viewBox="0 0 512 512" style="enable-background:new 0 0 512 512;" xml:space="preserve">
<path style="fill:#E7E7E7;" d="M505.699,247.301C500.9,241,394,91,255.4,91S11.1,241,6.301,247.301L0,256l6.301,8.699
	C11.1,271,116.8,421,255.4,421s245.5-150,250.299-156.301L512,256L505.699,247.301z"/>
<path style="fill:#D3D3D8;" d="M512,256l-6.301,8.699C500.9,271,394,421,255.4,421V91C394,91,500.9,241,505.699,247.301L512,256z"/>
<path style="fill:#00ABE9;" d="M255.4,151c-57.9,0-105,47.1-105,105s47.1,105,105,105s105-47.1,105-105S313.3,151,255.4,151z"/>
<path style="fill:#0095FF;" d="M360.4,256c0,57.9-47.1,105-105,105V151C313.3,151,360.4,198.1,360.4,256z"/>
<path style="fill:#5A5A5A;" d="M255.4,211c-24.901,0-45,20.099-45,45s20.099,45,45,45s45-20.099,45-45S280.301,211,255.4,211z"/>
<path style="fill:#444444;" d="M300.4,256c0,24.901-20.099,45-45,45v-90C280.301,211,300.4,231.099,300.4,256z"/>
<g>
</g>
<g>
</g>
<g>
</g>
<g>
</g>
<g>
</g>
<g>
</g>
<g>
</g>
<g>
</g>
<g>
</g>
<g>
</g>
<g>
</g>
<g>
</g>
<g>
</g>
<g>
</g>
<g>
</g>
</svg>
