<?xml version="1.0"?>
<svg xmlns="http://www.w3.org/2000/svg" viewBox="0 0 64 64" width="512" height="512"><g id="Design-2" data-name="Design"><path d="M61,20a1,1,0,0,0,1-1V11a1,1,0,0,0-1-1H52V5a3,3,0,0,0-3-3H23a1,1,0,0,0-.707.293l-16,16A1,1,0,0,0,6,19v9H3a1,1,0,0,0-1,1V61a1,1,0,0,0,1,1H61a1,1,0,0,0,1-1V29a1,1,0,0,0-1-1H54V20Zm-1-2H38V15.414L41.414,12H60ZM22,5.414V17a1,1,0,0,1-1,1H9.414ZM8,20H21a3,3,0,0,0,3-3V4H49a1,1,0,0,1,1,1v5H41a1,1,0,0,0-.707.293l-4,4A1,1,0,0,0,36,15v4a1,1,0,0,0,1,1h7v8H8ZM18,36H12V30h6Zm-4,2v6l0,.013L4,44.026V38ZM4,30h6v6H4ZM4,54h8v6H4Zm31,6V54h5a1,1,0,0,0,0-2H29a1,1,0,0,0,0,2h4v6H14V54h7a1,1,0,0,0,0-2H4V46.026L25,46a1,1,0,0,0,0-2h0l-9,.011L16,44V38h9a1,1,0,0,0,0-2H20V30H44V44H37a1,1,0,0,0,0,2h7v4a1,1,0,0,0,1,1h8a1,1,0,0,0,1-1V38h6V52H57a1,1,0,0,0,0,2h3v6ZM60,30v6H54V30ZM52,49H46V20h6Z"/><path d="M42,37a1,1,0,0,0-1-1H34a1,1,0,0,0,0,2h7A1,1,0,0,0,42,37Z"/></g></svg>
