<?xml version="1.0"?>
<svg xmlns="http://www.w3.org/2000/svg" viewBox="0 0 64 64" width="512" height="512"><g id="Favorite"><path d="M62.291,27.382A1.971,1.971,0,0,0,60.388,26H52V5a3,3,0,0,0-3-3H19a1,1,0,0,0-.707.293l-16,16A1,1,0,0,0,2,19V59a3,3,0,0,0,3,3H49a3,3,0,0,0,3-3V46.739l1.335.969a1.967,1.967,0,0,0,2.351,0,1.972,1.972,0,0,0,.727-2.236l-3.184-9.8,8.335-6.056A1.972,1.972,0,0,0,62.291,27.382ZM18,5.414V17a1,1,0,0,1-1,1H5.414ZM50,59a1,1,0,0,1-1,1H5a1,1,0,0,1-1-1V20H17a3,3,0,0,0,3-3V4H49a1,1,0,0,1,1,1V25.736L46.9,16.2a2,2,0,0,0-3.8,0L39.914,26h-10.3a2,2,0,0,0-1.176,3.618l8.335,6.056-3.184,9.8a2,2,0,0,0,3.078,2.236L45,41.652l5,3.633Zm2.053-24.944a2,2,0,0,0-.726,2.236l3.184,9.8-8.336-6.056a2,2,0,0,0-2.351,0L35.49,46.09l3.183-9.8a2,2,0,0,0-.726-2.236L29.612,28h10.3a1.994,1.994,0,0,0,1.9-1.382L45,16.808,45,16.82l3.184,9.8A1.994,1.994,0,0,0,50.086,28h10.3Z"/><path d="M11,28h4a1,1,0,0,0,0-2H11a1,1,0,0,0,0,2Z"/><path d="M11,34h4a1,1,0,0,0,0-2H11a1,1,0,0,0,0,2Z"/><path d="M11,40h4a1,1,0,0,0,0-2H11a1,1,0,0,0,0,2Z"/><path d="M34,39a1,1,0,0,0-1-1H21a1,1,0,0,0,0,2H33A1,1,0,0,0,34,39Z"/><path d="M21,34h4a1,1,0,0,0,0-2H21a1,1,0,0,0,0,2Z"/><path d="M21,28h4a1,1,0,0,0,0-2H21a1,1,0,0,0,0,2Z"/><path d="M31,44H11a1,1,0,0,0,0,2H31a1,1,0,0,0,0-2Z"/></g></svg>
