<?xml version="1.0"?>
<svg xmlns="http://www.w3.org/2000/svg" viewBox="0 0 64 64" width="512" height="512"><g id="Send_email" data-name="Send email"><path d="M57,20H41V18h5a1,1,0,0,0,.707-1.707l-14-14a1,1,0,0,0-1.414,0l-14,14A1,1,0,0,0,18,18h5v2H7a5.006,5.006,0,0,0-5,5V57a5.006,5.006,0,0,0,5,5H57a5.006,5.006,0,0,0,5-5V25A5.006,5.006,0,0,0,57,20ZM41.729,41,59.675,23.67A2.966,2.966,0,0,1,60,25V57a2.966,2.966,0,0,1-.325,1.33ZM20.414,16,32,4.414,43.586,16H40a1,1,0,0,0-1,1V34H25V17a1,1,0,0,0-1-1ZM23,22V35a1,1,0,0,0,1,1H40a1,1,0,0,0,1-1V22H57a2.977,2.977,0,0,1,1.24.276L34.087,45.6a3,3,0,0,1-4.172,0L5.76,22.276A2.977,2.977,0,0,1,7,22ZM4.325,58.33A2.966,2.966,0,0,1,4,57V25a2.966,2.966,0,0,1,.325-1.33L22.271,41ZM7,60a2.977,2.977,0,0,1-1.24-.276L23.711,42.39l4.816,4.651a5,5,0,0,0,6.947,0l4.815-4.65L58.24,59.724A2.977,2.977,0,0,1,57,60Z"/></g></svg>
