<?xml version="1.0"?>
<svg xmlns="http://www.w3.org/2000/svg" viewBox="0 0 64 64" width="512" height="512"><g id="Setting"><path d="M9,28h4a1,1,0,0,0,0-2H9a1,1,0,0,0,0,2Z"/><path d="M9,34h4a1,1,0,0,0,0-2H9a1,1,0,0,0,0,2Z"/><path d="M9,40h4a1,1,0,0,0,0-2H9a1,1,0,0,0,0,2Z"/><path d="M25,38H19a1,1,0,0,0,0,2h6a1,1,0,0,0,0-2Z"/><path d="M19,34h4a1,1,0,0,0,0-2H19a1,1,0,0,0,0,2Z"/><path d="M19,28H29a1,1,0,0,0,0-2H19a1,1,0,0,0,0,2Z"/><path d="M25,44H9a1,1,0,0,0,0,2H25a1,1,0,0,0,0-2Z"/><path d="M61,35H56.313a11.753,11.753,0,0,0-.48-1.168l3.314-3.315a1,1,0,0,0,0-1.414l-4.25-4.25a1,1,0,0,0-1.414,0L52,26.336V5a3,3,0,0,0-3-3H19a1,1,0,0,0-.707.293l-16,16A1,1,0,0,0,2,19V59a3,3,0,0,0,3,3H49a3,3,0,0,0,3-3V51.664l1.483,1.483a1,1,0,0,0,1.414,0l4.25-4.25a1,1,0,0,0,0-1.414l-3.314-3.315A11.753,11.753,0,0,0,56.313,43H61a1,1,0,0,0,1-1V36A1,1,0,0,0,61,35ZM18,5.414V17a1,1,0,0,1-1,1H5.414ZM49,60H5a1,1,0,0,1-1-1V20H17a3,3,0,0,0,3-3V4H49a1,1,0,0,1,1,1V28.1c-.33-.151-.662-.293-1-.412V23a1,1,0,0,0-1-1H42a1,1,0,0,0-1,1v4.686a12.023,12.023,0,0,0-1.169.481l-3.314-3.314a1,1,0,0,0-1.414,0l-4.25,4.25a1,1,0,0,0,0,1.414l3.314,3.315A11.753,11.753,0,0,0,33.687,35H29a1,1,0,0,0-1,1v6a1,1,0,0,0,1,1h4.687a11.753,11.753,0,0,0,.48,1.168l-3.314,3.315a1,1,0,0,0,0,1.414l4.25,4.25a1,1,0,0,0,1.414,0l3.314-3.314A12.023,12.023,0,0,0,41,50.314V55a1,1,0,0,0,1,1h6a1,1,0,0,0,1-1V50.314c.338-.119.67-.261,1-.412V59A1,1,0,0,1,49,60ZM60,41H55.58a1,1,0,0,0-.964.732,9.908,9.908,0,0,1-.881,2.144,1,1,0,0,0,.168,1.191l3.123,3.123L54.19,51.026,51.067,47.9a1,1,0,0,0-1.191-.168,9.851,9.851,0,0,1-2.143.881A1,1,0,0,0,47,49.58V54H43V49.58a1,1,0,0,0-.733-.964,9.851,9.851,0,0,1-2.143-.881,1,1,0,0,0-1.191.168L35.81,51.026,32.974,48.19,36.1,45.067a1,1,0,0,0,.168-1.191,9.908,9.908,0,0,1-.881-2.144A1,1,0,0,0,34.42,41H30V37h4.42a1,1,0,0,0,.964-.732,9.908,9.908,0,0,1,.881-2.144,1,1,0,0,0-.168-1.191L32.974,29.81l2.836-2.836L38.933,30.1a1,1,0,0,0,1.191.168,9.851,9.851,0,0,1,2.143-.881A1,1,0,0,0,43,28.42V24h4v4.42a1,1,0,0,0,.733.964,9.851,9.851,0,0,1,2.143.881,1,1,0,0,0,1.191-.168l3.123-3.123,2.836,2.836L53.9,32.933a1,1,0,0,0-.168,1.191,9.908,9.908,0,0,1,.881,2.144A1,1,0,0,0,55.58,37H60Z"/><path d="M45,32a7,7,0,1,0,7,7A7.008,7.008,0,0,0,45,32Zm0,12a5,5,0,1,1,5-5A5.006,5.006,0,0,1,45,44Z"/></g></svg>
