<?xml version="1.0"?>
<svg xmlns="http://www.w3.org/2000/svg" viewBox="0 0 64 64" width="512" height="512"><g id="Cloud_data" data-name="Cloud data"><path d="M55,37.465V34h5a1,1,0,0,0,.707-1.707L55,26.586V5a3,3,0,0,0-3-3H26a1,1,0,0,0-.707.293l-16,16A1,1,0,0,0,9,19V38.161A7.918,7.918,0,0,0,8,42c0,.278.014.552.04.822A10,10,0,0,0,12,62H49a13,13,0,0,0,6-24.535ZM54,32a1,1,0,0,0-1,1V50H39V33a1,1,0,0,0-1-1H34.414L46,20.414,57.586,32ZM53,5V24.586l-6.293-6.293a1,1,0,0,0-1.414,0L36.026,27.56a14.95,14.95,0,0,0-17.054,7.008A7.973,7.973,0,0,0,11,35.776V20H24a3,3,0,0,0,3-3V4H52A1,1,0,0,1,53,5ZM12.414,18,25,5.414V17a1,1,0,0,1-1,1ZM49,60H12A8,8,0,0,1,9.464,44.42a1,1,0,0,0,.664-1.159A6.051,6.051,0,0,1,10,42a6.01,6.01,0,0,1,8.925-5.246.991.991,0,0,0,.786.079,1,1,0,0,0,.6-.515,12.939,12.939,0,0,1,14.052-7.094l-3.069,3.069A1,1,0,0,0,32,34h5V51a1,1,0,0,0,1,1H54a1,1,0,0,0,1-1V39.774A11,11,0,0,1,49,60Z"/></g></svg>
