<?xml version="1.0"?>
<svg xmlns="http://www.w3.org/2000/svg" viewBox="0 0 64 64" width="512" height="512"><g id="Code"><path d="M55,8H52V5a3,3,0,0,0-3-3H23a1,1,0,0,0-.707.293l-16,16A1,1,0,0,0,6,19V53a3,3,0,0,0,3,3h3v3a3,3,0,0,0,3,3H55a3,3,0,0,0,3-3V11A3,3,0,0,0,55,8ZM22,5.414V17a1,1,0,0,1-1,1H9.414ZM8,53V20H21a3,3,0,0,0,3-3V4H49a1,1,0,0,1,1,1V53a1,1,0,0,1-1,1H9A1,1,0,0,1,8,53Zm48,6a1,1,0,0,1-1,1H15a1,1,0,0,1-1-1V56H49a3,3,0,0,0,3-3V10h3a1,1,0,0,1,1,1Z"/><path d="M31.165,22.014a1,1,0,0,0-1.151.821l-4,24a1,1,0,0,0,.821,1.151A.946.946,0,0,0,27,48a1,1,0,0,0,.985-.835l4-24A1,1,0,0,0,31.165,22.014Z"/><path d="M35.625,26.219a1,1,0,0,0-1.25,1.562L43.4,35l-9.024,7.219a1,1,0,0,0,1.25,1.562l10-8a1,1,0,0,0,0-1.562Z"/><path d="M23.781,26.375a1,1,0,0,0-1.406-.156l-10,8a1,1,0,0,0,0,1.562l10,8a1,1,0,0,0,1.25-1.562L14.6,35l9.024-7.219A1,1,0,0,0,23.781,26.375Z"/></g></svg>
