<svg height="512" viewBox="0 0 64 64" width="512" xmlns="http://www.w3.org/2000/svg"><path d="m59 2h-54a3 3 0 0 0 -3 3v54a3 3 0 0 0 3 3h54a3 3 0 0 0 3-3v-54a3 3 0 0 0 -3-3zm-54 2h54a1 1 0 0 1 1 1v5h-56v-5a1 1 0 0 1 1-1zm54 56h-54a1 1 0 0 1 -1-1v-47h56v47a1 1 0 0 1 -1 1z"/><path d="m7 8h1a1 1 0 0 0 0-2h-1a1 1 0 0 0 0 2z"/><path d="m12 8h1a1 1 0 0 0 0-2h-1a1 1 0 0 0 0 2z"/><path d="m17 8h1a1 1 0 0 0 0-2h-1a1 1 0 0 0 0 2z"/><path d="m53 36h-42a1 1 0 0 1 -1-1v-14a1 1 0 0 1 1-1h42a1 1 0 0 1 1 1v14a1 1 0 0 1 -1 1zm-41-2h40v-12h-40z"/><path d="m45 32a1 1 0 0 1 -.6-1.8l2.933-2.2-2.933-2.2a1 1 0 0 1 1.2-1.6l4 3a1 1 0 0 1 0 1.6l-4 3a1 1 0 0 1 -.6.2z"/><path d="m19 32a1 1 0 0 1 -.6-.2l-4-3a1 1 0 0 1 0-1.6l4-3a1 1 0 1 1 1.2 1.6l-2.933 2.2 2.933 2.2a1 1 0 0 1 -.6 1.8z"/><path d="m35 52h-6a3 3 0 0 1 -3-3v-2a3 3 0 0 1 3-3h6a3 3 0 0 1 3 3v2a3 3 0 0 1 -3 3zm-6-6a1 1 0 0 0 -1 1v2a1 1 0 0 0 1 1h6a1 1 0 0 0 1-1v-2a1 1 0 0 0 -1-1z"/><path d="m51 52h-6a3 3 0 0 1 -3-3v-2a3 3 0 0 1 3-3h6a3 3 0 0 1 3 3v2a3 3 0 0 1 -3 3zm-6-6a1 1 0 0 0 -1 1v2a1 1 0 0 0 1 1h6a1 1 0 0 0 1-1v-2a1 1 0 0 0 -1-1z"/><path d="m19 52h-6a3 3 0 0 1 -3-3v-2a3 3 0 0 1 3-3h6a3 3 0 0 1 3 3v2a3 3 0 0 1 -3 3zm-6-6a1 1 0 0 0 -1 1v2a1 1 0 0 0 1 1h6a1 1 0 0 0 1-1v-2a1 1 0 0 0 -1-1z"/></svg>