<?xml version="1.0"?>
<svg xmlns="http://www.w3.org/2000/svg" viewBox="0 0 64 64" width="512" height="512"><g id="Cut"><path d="M30.268,39.342A5,5,0,1,0,27.68,49a5.02,5.02,0,0,0,1.3.173,5,5,0,0,0,1.284-9.829Zm1.6,5.6a3,3,0,1,1-.3-2.276A2.983,2.983,0,0,1,31.87,44.946Z"/><path d="M61.125,24.01a1,1,0,0,0-1.108-.072L54,27.411V5a3,3,0,0,0-3-3H25a1,1,0,0,0-.707.293L20.586,6H5A3,3,0,0,0,2,9V51a3,3,0,0,0,3,3H8v1a3,3,0,0,0,3,3H39c.026,0,.048-.013.073-.015A7.994,7.994,0,0,0,54,54V36.4a20.836,20.836,0,0,0,7.432-11.148l.051-.194A1,1,0,0,0,61.125,24.01ZM24,5.414V17a1,1,0,0,1-1,1H11.414ZM8.293,18.293A1,1,0,0,0,8,19V52H5a1,1,0,0,1-1-1V9A1,1,0,0,1,5,8H18.586ZM11,56a1,1,0,0,1-1-1V20H23a3,3,0,0,0,3-3V4H51a1,1,0,0,1,1,1V28.566l-3.995,2.306V17a1,1,0,0,0-1.687-.727l-.172.163A21.145,21.145,0,0,0,40,31.279L40,35.5l-2.5,1.441a1,1,0,0,0-.366,1.366l.5.866-1.732,1a8.03,8.03,0,1,0,.638,6.56l3.46-2v3.994A7.9,7.9,0,0,0,38.263,56ZM46.005,32.027,42,34.341l0-3.061a19.16,19.16,0,0,1,4.005-11.668ZM42,47.082V44h2v2.263A7.963,7.963,0,0,0,42,47.082Zm-2.366-4.448-2.67,1.541a7.913,7.913,0,0,0-.29-2.141l1.96-1.132Zm-7.66,6.732a6,6,0,1,1,2.2-8.2A6.008,6.008,0,0,1,31.974,49.366ZM44.736,42,46,41.266V42ZM46,60a5.994,5.994,0,0,1-4.294-10.182l0,0A6,6,0,1,1,46,60Zm6-11.274A7.976,7.976,0,0,0,46,46V44l1,0h0a1,1,0,0,0,1-1l0-2.891,3.641-2.1c.123-.07.234-.155.354-.227Zm-1.354-12.45-9.28,5.358-2-3.464L58.75,26.979A18.854,18.854,0,0,1,50.646,36.276Z"/><path d="M46,49a5,5,0,1,0,5,5A5.006,5.006,0,0,0,46,49Zm0,8a3,3,0,1,1,3-3A3,3,0,0,1,46,57Z"/></g></svg>
