<svg height="512" viewBox="0 0 64 64" width="512" xmlns="http://www.w3.org/2000/svg"><g id="Data_file" data-name="Data file"><path d="m7 8h1a1 1 0 0 0 0-2h-1a1 1 0 0 0 0 2z"/><path d="m12 8h1a1 1 0 0 0 0-2h-1a1 1 0 0 0 0 2z"/><path d="m17 8h1a1 1 0 0 0 0-2h-1a1 1 0 0 0 0 2z"/><path d="m59 18h-5v-13a3 3 0 0 0 -3-3h-46a3 3 0 0 0 -3 3v38a3 3 0 0 0 3 3h5v13a3 3 0 0 0 3 3h46a3 3 0 0 0 3-3v-38a3 3 0 0 0 -3-3zm1 3v5h-48v-5a1 1 0 0 1 1-1h46a1 1 0 0 1 1 1zm-55-17h46a1 1 0 0 1 1 1v5h-48v-5a1 1 0 0 1 1-1zm0 40a1 1 0 0 1 -1-1v-31h48v6h-39a3 3 0 0 0 -3 3v23zm54 16h-46a1 1 0 0 1 -1-1v-31h48v31a1 1 0 0 1 -1 1z"/><path d="m16 22h-1a1 1 0 0 0 0 2h1a1 1 0 0 0 0-2z"/><path d="m21 22h-1a1 1 0 0 0 0 2h1a1 1 0 0 0 0-2z"/><path d="m26 22h-1a1 1 0 0 0 0 2h1a1 1 0 0 0 0-2z"/><path d="m20 35h4a1 1 0 0 0 0-2h-4a1 1 0 0 0 0 2z"/><path d="m20 41h4a1 1 0 0 0 0-2h-4a1 1 0 0 0 0 2z"/><path d="m20 47h4a1 1 0 0 0 0-2h-4a1 1 0 0 0 0 2z"/><path d="m30 47h12a1 1 0 0 0 0-2h-12a1 1 0 0 0 0 2z"/><path d="m30 41h4a1 1 0 0 0 0-2h-4a1 1 0 0 0 0 2z"/><path d="m42 41a1 1 0 0 0 0-2h-4a1 1 0 0 0 0 2z"/><path d="m52 39h-4a1 1 0 0 0 0 2h4a1 1 0 0 0 0-2z"/><path d="m52 45h-4a1 1 0 0 0 0 2h4a1 1 0 0 0 0-2z"/><path d="m52 33h-22a1 1 0 0 0 0 2h22a1 1 0 0 0 0-2z"/><path d="m52 51h-32a1 1 0 0 0 0 2h32a1 1 0 0 0 0-2z"/></g></svg>