<svg height="512" viewBox="0 0 64 64" width="512" xmlns="http://www.w3.org/2000/svg"><path d="m61.6 28.2-4.6-3.45v-19.75a3 3 0 0 0 -3-3h-30a1 1 0 0 0 -.707.293l-16 16a1 1 0 0 0 -.293.707v21.75l-4.6 3.45a1 1 0 0 0 0 1.6l4.6 3.45v9.75a3 3 0 0 0 3 3h44a3 3 0 0 0 3-3v-25.75l4.6-3.45a1 1 0 0 0 0-1.6zm-38.6-22.786v11.586a1 1 0 0 1 -1 1h-11.586zm-5 29.586v4a1 1 0 0 0 1 1h21v10h-21a1 1 0 0 0 -1 1v4l-13.333-10zm37 24a1 1 0 0 1 -1 1h-44a1 1 0 0 1 -1-1v-8.25l9.4 7.05a1 1 0 0 0 1.6-.8v-5h21a1 1 0 0 0 1-1v-12a1 1 0 0 0 -1-1h-21v-5a1 1 0 0 0 -1.6-.8l-9.4 7.05v-19.25h13a3 3 0 0 0 3-3v-13h29a1 1 0 0 1 1 1v18.25l-9.4-7.05a1 1 0 0 0 -1.6.8v5h-21a1 1 0 0 0 -1 1v12a1 1 0 0 0 1 1h21v5a1 1 0 0 0 1.6.8l9.4-7.05zm-9-20v-4a1 1 0 0 0 -1-1h-21v-10h21a1 1 0 0 0 1-1v-4l13.333 10z"/></svg>