<?xml version="1.0"?>
<svg xmlns="http://www.w3.org/2000/svg" viewBox="0 0 64 64" width="512" height="512"><g id="Design"><path d="M61.707,18.293l-16-16A1,1,0,0,0,45,2H5A3,3,0,0,0,2,5V49a3,3,0,0,0,3,3H23.984A10.992,10.992,0,0,1,25,56.62V61a1,1,0,0,0,1,1H38a1,1,0,0,0,1-1V56.62A10.992,10.992,0,0,1,40.016,52H59a3,3,0,0,0,3-3V19A1,1,0,0,0,61.707,18.293ZM46,5.414,58.586,18H47a1,1,0,0,1-1-1ZM37,60H27V58H37Zm.015-4H26.985a12.952,12.952,0,0,0-4.665-9.368l-.95-.792L31,33V44.184a3,3,0,1,0,2,0V33l9.63,12.84-.95.791A12.956,12.956,0,0,0,37.015,56ZM32,46a1,1,0,1,1-1,1A1,1,0,0,1,32,46Zm28,3a1,1,0,0,1-1,1H41.219a11,11,0,0,1,1.741-1.832s1.778-1.5,1.794-1.541A.985.985,0,0,0,44.8,45.4l-12-16a1.036,1.036,0,0,0-1.6,0l-12,16a.99.99,0,0,0,.122,1.313c.014.017,1.719,1.455,1.719,1.455A11.029,11.029,0,0,1,22.781,50H5a1,1,0,0,1-1-1V5A1,1,0,0,1,5,4H44V17a3,3,0,0,0,3,3H60Z"/><path d="M12.414,43l1.414-1.414a1,1,0,0,0-1.414-1.414L11,41.586,9.586,40.172a1,1,0,0,0-1.414,1.414L9.586,43,8.172,44.414a1,1,0,1,0,1.414,1.414L11,44.414l1.414,1.414a1,1,0,0,0,1.414-1.414Z"/><path d="M54.414,27l1.414-1.414a1,1,0,1,0-1.414-1.414L53,25.586l-1.414-1.414a1,1,0,1,0-1.414,1.414L51.586,27l-1.414,1.414a1,1,0,1,0,1.414,1.414L53,28.414l1.414,1.414a1,1,0,1,0,1.414-1.414Z"/><path d="M20.414,15l1.414-1.414a1,1,0,1,0-1.414-1.414L19,13.586l-1.414-1.414a1,1,0,1,0-1.414,1.414L17.586,15l-1.414,1.414a1,1,0,1,0,1.414,1.414L19,16.414l1.414,1.414a1,1,0,1,0,1.414-1.414Z"/><path d="M15,39a1,1,0,0,1-.707-1.707l1.414-1.414a1,1,0,1,1,1.414,1.414l-1.414,1.414A1,1,0,0,1,15,39Zm29.241-3.984a1.023,1.023,0,0,1-.243-.03,5.005,5.005,0,0,1-2.179-1.176,1,1,0,0,1,1.358-1.469,2.989,2.989,0,0,0,1.3.7,1,1,0,0,1-.24,1.971Zm-25-.259a1,1,0,0,1-.707-1.707l1.414-1.414a1,1,0,1,1,1.414,1.414L19.95,34.464A1,1,0,0,1,19.243,34.757Zm28.708-.71a1,1,0,0,1-.689-1.725l1.031-1.029a1,1,0,0,1,1.414,1.414L48.64,33.772A1,1,0,0,1,47.951,34.047Zm-8.09-2.977a1,1,0,0,1-.757-.345L37.8,29.213A1,1,0,0,1,39.307,27.9l1.309,1.511a1,1,0,0,1-.755,1.655Zm-16.376-.555a1,1,0,0,1-.707-1.707l1.414-1.414a1,1,0,0,1,1.414,1.414l-1.414,1.414A1,1,0,0,1,23.485,30.515ZM35.647,26.84a1,1,0,0,1-.507-.138,6.978,6.978,0,0,0-1.6-.692,1,1,0,0,1,.557-1.921,8.994,8.994,0,0,1,2.061.89,1,1,0,0,1-.51,1.861Zm-7.665-.255a1,1,0,0,1-.451-1.893,8.948,8.948,0,0,1,2.116-.751,1,1,0,1,1,.427,1.955,6.886,6.886,0,0,0-1.643.583A1,1,0,0,1,27.982,26.585Z"/></g></svg>
