<?xml version="1.0"?>
<svg xmlns="http://www.w3.org/2000/svg" viewBox="0 0 64 64" width="512" height="512"><g id="Edit"><path d="M57,12H52V5a3,3,0,0,0-3-3H23a1,1,0,0,0-.707.293l-16,16A1,1,0,0,0,6,19V55a3,3,0,0,0,3,3H32.382L34.1,61.447a1,1,0,0,0,1.79,0L37.618,58H44v3a1,1,0,0,0,1,1H57a1,1,0,0,0,1-1V13A1,1,0,0,0,57,12ZM22,5.414V17a1,1,0,0,1-1,1H9.414Zm13,53.35-1.178-2.356a2.1,2.1,0,0,1,2.356,0Zm2.078-4.156a3.855,3.855,0,0,0-4.156,0l-.7-1.411L35,50.414,37.783,53.2ZM32,50.586V28h2V48.586Zm6,0-2-2V28h2ZM38,26H32V24h6Zm0-4H32V21a3,3,0,0,1,6,0Zm6-9V56H38.618L39.9,53.447A1,1,0,0,0,40,53V21a5,5,0,0,0-10,0V53a1,1,0,0,0,.105.447L31.382,56H9a1,1,0,0,1-1-1V20H21a3,3,0,0,0,3-3V4H49a1,1,0,0,1,1,1v7H45A1,1,0,0,0,44,13Zm9,13h3v4H53a1,1,0,0,0,0,2h3v4H53a1,1,0,0,0,0,2h3v4H53a1,1,0,0,0,0,2h3v4H53a1,1,0,0,0,0,2h3v4H53a1,1,0,0,0,0,2h3v4H46V14H56v4H53a1,1,0,0,0,0,2h3v4H53a1,1,0,0,0,0,2Z"/></g></svg>
