<svg height="512" viewBox="0 0 64 64" width="512" xmlns="http://www.w3.org/2000/svg"><path d="m54 2h-30a1 1 0 0 0 -.707.293l-16 16a1 1 0 0 0 -.293.707v40a3 3 0 0 0 3 3h44a3 3 0 0 0 3-3v-54a3 3 0 0 0 -3-3zm-31 3.414v11.586a1 1 0 0 1 -1 1h-11.586zm32 53.586a1 1 0 0 1 -1 1h-44a1 1 0 0 1 -1-1v-39h13a3 3 0 0 0 3-3v-13h29a1 1 0 0 1 1 1z"/><path d="m20 28h-4a1 1 0 0 1 0-2h4a1 1 0 0 1 0 2z"/><path d="m20 34h-4a1 1 0 0 1 0-2h4a1 1 0 0 1 0 2z"/><path d="m20 40h-4a1 1 0 0 1 0-2h4a1 1 0 0 1 0 2z"/><path d="m38 40h-12a1 1 0 0 1 0-2h12a1 1 0 0 1 0 2z"/><path d="m30 34h-4a1 1 0 0 1 0-2h4a1 1 0 0 1 0 2z"/><path d="m38 34h-4a1 1 0 0 1 0-2h4a1 1 0 0 1 0 2z"/><path d="m48 34h-4a1 1 0 0 1 0-2h4a1 1 0 0 1 0 2z"/><path d="m48 40h-4a1 1 0 0 1 0-2h4a1 1 0 0 1 0 2z"/><path d="m48 28h-22a1 1 0 0 1 0-2h22a1 1 0 0 1 0 2z"/><path d="m48 46h-32a1 1 0 0 1 0-2h32a1 1 0 0 1 0 2z"/></svg>