<?xml version="1.0"?>
<svg xmlns="http://www.w3.org/2000/svg" viewBox="0 0 64 64" width="512" height="512"><g id="Floder"><path d="M53,56H39a3,3,0,0,1-3-3V49a3,3,0,0,1,3-3H53a3,3,0,0,1,3,3v4A3,3,0,0,1,53,56ZM39,48a1,1,0,0,0-1,1v4a1,1,0,0,0,1,1H53a1,1,0,0,0,1-1V49a1,1,0,0,0-1-1Z"/><path d="M60,28.184V27a5.006,5.006,0,0,0-5-5H54V5a3,3,0,0,0-3-3H25a1,1,0,0,0-.707.293l-16,16A1,1,0,0,0,8,19v3H7a5.006,5.006,0,0,0-5,5V59a3,3,0,0,0,3,3H59a3,3,0,0,0,3-3V31A3,3,0,0,0,60,28.184ZM55,24a3,3,0,0,1,3,3v1H54V24ZM52,5V28H49a1,1,0,0,1-1-1V25a5.006,5.006,0,0,0-5-5H34a5.006,5.006,0,0,0-5,5v2a1,1,0,0,1-1,1H10V20H23a3,3,0,0,0,3-3V4H51A1,1,0,0,1,52,5ZM11.414,18,24,5.414V17a1,1,0,0,1-1,1ZM4,27a3,3,0,0,1,3-3H8v4H4ZM60,59a1,1,0,0,1-1,1H5a1,1,0,0,1-1-1V30H28a3,3,0,0,0,3-3V25a3,3,0,0,1,3-3h9a3,3,0,0,1,3,3v2a3,3,0,0,0,3,3H59a1,1,0,0,1,1,1Z"/></g></svg>
