<?xml version="1.0"?>
<svg xmlns="http://www.w3.org/2000/svg" viewBox="0 0 64 64" width="512" height="512"><g id="Image"><path d="M8,8H7A1,1,0,0,1,7,6H8A1,1,0,0,1,8,8Z"/><path d="M13,8H12a1,1,0,0,1,0-2h1a1,1,0,0,1,0,2Z"/><path d="M18,8H17a1,1,0,0,1,0-2h1a1,1,0,0,1,0,2Z"/><path d="M59,2H5A3,3,0,0,0,2,5V59a3,3,0,0,0,3,3H59a3,3,0,0,0,3-3V5A3,3,0,0,0,59,2ZM5,4H59a1,1,0,0,1,1,1v5H4V5A1,1,0,0,1,5,4ZM59,60H5a1,1,0,0,1-1-1V12H60V59A1,1,0,0,1,59,60Z"/><path d="M57,18H7a1,1,0,0,0-1,1V53a1,1,0,0,0,1,1H57a1,1,0,0,0,1-1V19A1,1,0,0,0,57,18ZM24.441,52H8.869L19,36.8l7.693,11.539Zm2.349,0L41,28.908,55.21,52ZM56,49.467,41.852,26.476a1.039,1.039,0,0,0-1.7,0l-12.3,19.991L19.832,34.445a1.039,1.039,0,0,0-1.664,0L8,49.7V20H56Z"/><path d="M28,34a5,5,0,1,0-5-5A5.006,5.006,0,0,0,28,34Zm0-8a3,3,0,1,1-3,3A3,3,0,0,1,28,26Z"/></g></svg>
