<?xml version="1.0"?>
<svg xmlns="http://www.w3.org/2000/svg" viewBox="0 0 64 64" width="512" height="512"><g id="Link"><path d="M62.02,29.98A7.964,7.964,0,0,0,58,23.046V5a3,3,0,0,0-3-3H29a1,1,0,0,0-.707.293L24.586,6H9A3,3,0,0,0,6,9V51a3,3,0,0,0,3,3h3v1a3,3,0,0,0,3,3h8.046a8,8,0,0,0,12.591,1.677L37.314,58H55a3,3,0,0,0,3-3V37.314l1.677-1.677A7.95,7.95,0,0,0,62.02,29.98ZM28,5.414V17a1,1,0,0,1-1,1H15.414ZM12.293,18.293A1,1,0,0,0,12,19V52H9a1,1,0,0,1-1-1V9A1,1,0,0,1,9,8H22.586ZM15,56a1,1,0,0,1-1-1V20H27a3,3,0,0,0,3-3V4H55a1,1,0,0,1,1,1V22.237a8.056,8.056,0,0,0-1.98-.255,7.943,7.943,0,0,0-5.657,2.341l-5.66,5.66a8.026,8.026,0,0,0-2.051,7.708l-2.963,2.963A8.008,8.008,0,0,0,29.983,42.7l-5.66,5.66a7.943,7.943,0,0,0-2.341,5.657A8.056,8.056,0,0,0,22.237,56ZM50.8,36.034A3.874,3.874,0,0,0,47.966,33.2l4.641-4.633a2,2,0,1,1,2.825,2.827Zm-5.265-.4a2,2,0,1,1,2.829,2.828L37.051,49.778a2,2,0,1,1-2.829-2.828ZM31.784,49.385a3.886,3.886,0,0,0,2.834,2.829l-3.225,3.219a2,2,0,1,1-2.825-2.827Zm2.439,8.878a6,6,0,0,1-8.486-8.486l5.66-5.66a6.024,6.024,0,0,1,4.57-1.741l-8.814,8.817a4,4,0,0,0,5.653,5.655l8.807-8.8c.005.107.027.208.027.316A5.961,5.961,0,0,1,39.883,52.6ZM56,55a1,1,0,0,1-1,1H39.314L41.3,54.017A7.946,7.946,0,0,0,43.64,48.36a7.807,7.807,0,0,0-.274-2.069l2.928-2.928A8.032,8.032,0,0,0,54.017,41.3L56,39.314ZM52.6,39.883a6.028,6.028,0,0,1-4.569,1.74l8.813-8.816a4,4,0,0,0-5.653-5.655l-8.818,8.815a6.028,6.028,0,0,1,1.741-4.57l5.66-5.66a6,6,0,0,1,8.486,8.486Z"/></g></svg>
