<?xml version="1.0"?>
<svg xmlns="http://www.w3.org/2000/svg" viewBox="0 0 64 64" width="512" height="512"><g id="Paint"><path d="M22,38H38a1,1,0,0,0,0-2H22a1,1,0,0,0,0,2Z"/><path d="M42,38h2a1,1,0,0,0,0-2H42a1,1,0,0,0,0,2Z"/><path d="M61.822,44.43A1,1,0,0,0,61,44H51V41a9.01,9.01,0,0,0-9-9H37.345l4.883-16.264a10.8,10.8,0,0,0,.452-3.076,10.678,10.678,0,1,0-20.908,3.078L26.655,32H22a9.01,9.01,0,0,0-9,9v3H9a1,1,0,0,0-.937.649l-6,16A1,1,0,0,0,3,62H55a1,1,0,0,0,.937-.649l6-16A1,1,0,0,0,61.822,44.43ZM15,42H38v3a1,1,0,0,0,2,0V42h3v6a1,1,0,0,0,2,0V42h4V52H27.566l-2.709-4.515A1,1,0,0,0,24,47h-.008a1,1,0,0,0-.858.5l-2.6,4.5H15ZM26.342,24H37.658l-1.2,4H27.543Zm-1.3-16.5A8.681,8.681,0,0,1,40.68,12.66a8.768,8.768,0,0,1-.368,2.5L38.259,22H25.741l-2.053-6.837A8.6,8.6,0,0,1,25.038,7.5ZM22,34h6a1,1,0,0,0,.958-1.288L28.144,30h7.712l-.814,2.712A1,1,0,0,0,36,34h6a7,7,0,0,1,6.92,6H15.08A7,7,0,0,1,22,34ZM54.307,60H4.443l5.25-14H13v7a1,1,0,0,0,1,1h7.11a1,1,0,0,0,.867-.5l2.04-3.529,2.126,3.544A1,1,0,0,0,27,54H50a1,1,0,0,0,1-1V46h8.557Z"/></g></svg>
