<svg height="512" viewBox="0 0 64 64" width="512" xmlns="http://www.w3.org/2000/svg"><path d="m56 27.08v-3.08a3 3 0 0 0 -3-3h-2v-16a3 3 0 0 0 -3-3h-22a1 1 0 0 0 -.707.293l-12 12a1 1 0 0 0 -.293.707v6h-2a3 3 0 0 0 -3 3v3.08a7 7 0 0 0 -6 6.92v15a1 1 0 0 0 1 1h5v2a1 1 0 0 0 1 1h4v8a1 1 0 0 0 1 1h36a1 1 0 0 0 1-1v-8h4a1 1 0 0 0 1-1v-3h5a1 1 0 0 0 1-1v-14a7 7 0 0 0 -6-6.92zm-31-21.666v7.586a1 1 0 0 1 -1 1h-7.586zm-10 10.586h9a3 3 0 0 0 3-3v-9h21a1 1 0 0 1 1 1v16h-34zm-11 32v-14a5.008 5.008 0 0 1 4-4.9v18.9zm45 12h-34v-16h34zm5-9h-3v-8a1 1 0 0 0 -1-1h-36a1 1 0 0 0 -1 1v8h-3v-27a1 1 0 0 1 1-1h42a1 1 0 0 1 1 1zm6-4h-4v-17.9a5.008 5.008 0 0 1 4 4.9z"/><path d="m49 25a3 3 0 1 0 3 3 3 3 0 0 0 -3-3zm0 4a1 1 0 1 1 1-1 1 1 0 0 1 -1 1z"/><path d="m41 25a3 3 0 1 0 3 3 3 3 0 0 0 -3-3zm0 4a1 1 0 1 1 1-1 1 1 0 0 1 -1 1z"/><path d="m43 46h-23a1 1 0 0 0 0 2h23a1 1 0 0 0 0-2z"/></svg>