<?xml version="1.0"?>
<svg xmlns="http://www.w3.org/2000/svg" viewBox="0 0 64 64" width="512" height="512"><g id="Search"><path d="M17,46H11a1,1,0,0,1,0-2h6a1,1,0,0,1,0,2Z"/><path d="M15,28H11a1,1,0,0,1,0-2h4a1,1,0,0,1,0,2Z"/><path d="M15,34H11a1,1,0,0,1,0-2h4a1,1,0,0,1,0,2Z"/><path d="M15,40H11a1,1,0,0,1,0-2h4a1,1,0,0,1,0,2Z"/><path d="M23,40H21a1,1,0,0,1,0-2h2a1,1,0,0,1,0,2Z"/><path d="M25,34H21a1,1,0,0,1,0-2h4a1,1,0,0,1,0,2Z"/><path d="M56.85,14.151a15.886,15.886,0,0,0-4.85-3.3V5a3,3,0,0,0-3-3H19a1,1,0,0,0-.707.293l-16,16A1,1,0,0,0,2,19V59a3,3,0,0,0,3,3H49a3,3,0,0,0,3-3V40.083a15.962,15.962,0,0,0,4.85-25.932ZM18,5.414V17a1,1,0,0,1-1,1H5.414ZM50,59a1,1,0,0,1-1,1H5a1,1,0,0,1-1-1V20H17a3,3,0,0,0,3-3V4H49a1,1,0,0,1,1,1v5.107A15.987,15.987,0,0,0,30.809,31.7a2.965,2.965,0,0,0-2.244,5.081L17.787,47.557a4,4,0,1,0,5.656,5.656L34.222,42.435h0A2.99,2.99,0,0,0,39.331,40.2,15.981,15.981,0,0,0,50,40.821ZM37.05,39.606a1,1,0,1,1-1.414,1.415l-5.657-5.657a1,1,0,0,1,0-1.415,1.024,1.024,0,0,1,1.414,0Zm-4.242,1.415L22.029,51.8a2.047,2.047,0,0,1-2.828,0,2,2,0,0,1,0-2.828L29.979,38.192Zm2.835-5.65-.014-.014a14,14,0,1,1,.014.014Z"/><path d="M54.021,16.979a12.014,12.014,0,1,0,3.509,8.485A11.92,11.92,0,0,0,54.021,16.979ZM52.606,32.536a10.012,10.012,0,1,1,2.924-7.072A9.931,9.931,0,0,1,52.606,32.536Z"/><path d="M51.192,19.808a7.945,7.945,0,0,0-5.657-2.338,1,1,0,0,0,0,2,5.982,5.982,0,0,1,6,5.994,1,1,0,0,0,2,0A7.944,7.944,0,0,0,51.192,19.808Z"/><path d="M21,28h6a1,1,0,0,0,0-2H21a1,1,0,0,0,0,2Z"/></g></svg>
