<?xml version="1.0"?>
<svg xmlns="http://www.w3.org/2000/svg" viewBox="0 0 64 64" width="512" height="512"><g id="WWW"><path d="M21.2,8.02A1,1,0,0,0,20.02,8.8l-1.384,6.915L15.914,9.594a1,1,0,0,0-1.828,0l-2.722,6.125L9.98,8.8A1,1,0,1,0,8.02,9.2l2,10a1,1,0,0,0,1.894.21L15,12.462l3.086,6.944A1,1,0,0,0,19,20a1.028,1.028,0,0,0,.11-.006,1,1,0,0,0,.87-.8l2-10A1,1,0,0,0,21.2,8.02Z"/><path d="M44.89,19.994a1,1,0,0,0,1.024-.588L49,12.462l3.086,6.944A1,1,0,0,0,53,20a1.028,1.028,0,0,0,.11-.006,1,1,0,0,0,.87-.8l2-10A1,1,0,1,0,54.02,8.8l-1.383,6.915L49.914,9.594a1,1,0,0,0-1.828,0l-2.723,6.125L43.98,8.8a1,1,0,0,0-1.96.392l2,10A1,1,0,0,0,44.89,19.994Z"/><path d="M42.485,25.515a11.994,11.994,0,1,0,0,16.97A12.012,12.012,0,0,0,42.485,25.515ZM41.071,41.071a10,10,0,1,1,0-14.142A10.012,10.012,0,0,1,41.071,41.071Z"/><path d="M34,26.005a7.943,7.943,0,0,0-5.657,2.338,1,1,0,0,0,1.414,1.414,6.014,6.014,0,0,1,8.486,0,1,1,0,1,0,1.414-1.414A7.945,7.945,0,0,0,34,26.005Z"/><path d="M60.87,55.213l-9.9-9.9A2.991,2.991,0,0,0,48.754,40.2a15.981,15.981,0,0,0-.91-14.2H59a3,3,0,0,0,3-3V5a3,3,0,0,0-3-3H5A3,3,0,0,0,2,5V23a3,3,0,0,0,3,3H20.164A16,16,0,0,0,40.2,48.754a2.994,2.994,0,0,0,5.11,2.217h0l9.9,9.9a4,4,0,1,0,5.657-5.657ZM5,24a1,1,0,0,1-1-1V5A1,1,0,0,1,5,4H59a1,1,0,0,1,1,1V23a1,1,0,0,1-1,1H46.483a16.054,16.054,0,0,0-1.17-1.313,15.879,15.879,0,0,0-8.155-4.377L38.98,9.2A1,1,0,0,0,37.02,8.8l-1.383,6.915L32.914,9.594a1,1,0,0,0-1.828,0l-2.722,6.125L26.98,8.8a1,1,0,0,0-1.96.392l2,10a.964.964,0,0,0,.15.347A15.7,15.7,0,0,0,21.517,24Zm29.471-5.977c-.157,0-.313-.023-.471-.023a16.026,16.026,0,0,0-4.786.731L32,12.462ZM24.1,43.9A14,14,0,1,1,34,48,14.014,14.014,0,0,1,24.1,43.9Zm18.384,5.658a1,1,0,0,1,0-1.415l5.657-5.657a1,1,0,0,1,1.415,0,1,1,0,0,1,0,1.413h0L43.9,49.556A1,1,0,0,1,42.485,49.557Zm16.971,9.9a2,2,0,0,1-2.829,0l-9.9-9.9,2.829-2.828,9.9,9.9a2,2,0,0,1,0,2.829Z"/></g></svg>
